<svg id="my-svg" width="100%" xmlns="http://www.w3.org/2000/svg" xmlns:xlink="http://www.w3.org/1999/xlink" class="erDiagram" style="max-width: 706.48px; background-color: transparent;" viewBox="0 0 706.48046875 929.25" role="graphics-document document" aria-roledescription="er"><style>#my-svg{font-family:"trebuchet ms",verdana,arial,sans-serif;font-size:16px;fill:#333;}@keyframes edge-animation-frame{from{stroke-dashoffset:0;}}@keyframes dash{to{stroke-dashoffset:0;}}#my-svg .edge-animation-slow{stroke-dasharray:9,5!important;stroke-dashoffset:900;animation:dash 50s linear infinite;stroke-linecap:round;}#my-svg .edge-animation-fast{stroke-dasharray:9,5!important;stroke-dashoffset:900;animation:dash 20s linear infinite;stroke-linecap:round;}#my-svg .error-icon{fill:#552222;}#my-svg .error-text{fill:#552222;stroke:#552222;}#my-svg .edge-thickness-normal{stroke-width:1px;}#my-svg .edge-thickness-thick{stroke-width:3.5px;}#my-svg .edge-pattern-solid{stroke-dasharray:0;}#my-svg .edge-thickness-invisible{stroke-width:0;fill:none;}#my-svg .edge-pattern-dashed{stroke-dasharray:3;}#my-svg .edge-pattern-dotted{stroke-dasharray:2;}#my-svg .marker{fill:#333333;stroke:#333333;}#my-svg .marker.cross{stroke:#333333;}#my-svg svg{font-family:"trebuchet ms",verdana,arial,sans-serif;font-size:16px;}#my-svg p{margin:0;}#my-svg .entityBox{fill:#ECECFF;stroke:#9370DB;}#my-svg .relationshipLabelBox{fill:hsl(80, 100%, 96.2745098039%);opacity:0.7;background-color:hsl(80, 100%, 96.2745098039%);}#my-svg .relationshipLabelBox rect{opacity:0.5;}#my-svg .labelBkg{background-color:rgba(248.6666666666, 255, 235.9999999999, 0.5);}#my-svg .edgeLabel{background-color:rgba(232,232,232, 0.8);}#my-svg .edgeLabel .label rect{fill:rgba(232,232,232, 0.8);}#my-svg .edgeLabel .label text{fill:#333;}#my-svg .edgeLabel .label{fill:#9370DB;font-size:14px;}#my-svg .label{font-family:"trebuchet ms",verdana,arial,sans-serif;color:#333;}#my-svg .edge-pattern-dashed{stroke-dasharray:8,8;}#my-svg .node rect,#my-svg .node circle,#my-svg .node ellipse,#my-svg .node polygon{fill:#ECECFF;stroke:#9370DB;stroke-width:1px;}#my-svg .relationshipLine{stroke:#333333;stroke-width:1px;fill:none;}#my-svg .marker{fill:none!important;stroke:#333333!important;stroke-width:1;}#my-svg [data-look=neo].labelBkg{background-color:rgba(248.6666666666, 255, 235.9999999999, 0.5);}#my-svg .node .neo-node{stroke:#9370DB;}#my-svg [data-look="neo"].node rect,#my-svg [data-look="neo"].cluster rect,#my-svg [data-look="neo"].node polygon{stroke:#9370DB;filter:drop-shadow(1px 2px 2px rgba(185, 185, 185, 1));}#my-svg [data-look="neo"].node path{stroke:#9370DB;stroke-width:1px;}#my-svg [data-look="neo"].node .outer-path{filter:drop-shadow(1px 2px 2px rgba(185, 185, 185, 1));}#my-svg [data-look="neo"].node .neo-line path{stroke:#9370DB;filter:none;}#my-svg [data-look="neo"].node circle{stroke:#9370DB;filter:drop-shadow(1px 2px 2px rgba(185, 185, 185, 1));}#my-svg [data-look="neo"].node circle .state-start{fill:#000000;}#my-svg [data-look="neo"].icon-shape .icon{fill:#9370DB;filter:drop-shadow(1px 2px 2px rgba(185, 185, 185, 1));}#my-svg [data-look="neo"].icon-shape .icon-neo path{stroke:#9370DB;filter:drop-shadow(1px 2px 2px rgba(185, 185, 185, 1));}#my-svg :root{--mermaid-font-family:"trebuchet ms",verdana,arial,sans-serif;}</style><g><defs><marker id="my-svg_er-onlyOneStart" class="marker onlyOne er" refX="0" refY="9" markerWidth="18" markerHeight="18" orient="auto"><path d="M9,0 L9,18 M15,0 L15,18"/></marker></defs><defs><marker id="my-svg_er-onlyOneEnd" class="marker onlyOne er" refX="18" refY="9" markerWidth="18" markerHeight="18" orient="auto"><path d="M3,0 L3,18 M9,0 L9,18"/></marker></defs><defs><marker id="my-svg_er-zeroOrOneStart" class="marker zeroOrOne er" refX="0" refY="9" markerWidth="30" markerHeight="18" orient="auto"><circle fill="white" cx="21" cy="9" r="6"/><path d="M9,0 L9,18"/></marker></defs><defs><marker id="my-svg_er-zeroOrOneEnd" class="marker zeroOrOne er" refX="30" refY="9" markerWidth="30" markerHeight="18" orient="auto"><circle fill="white" cx="9" cy="9" r="6"/><path d="M21,0 L21,18"/></marker></defs><defs><marker id="my-svg_er-oneOrMoreStart" class="marker oneOrMore er" refX="18" refY="18" markerWidth="45" markerHeight="36" orient="auto"><path d="M0,18 Q 18,0 36,18 Q 18,36 0,18 M42,9 L42,27"/></marker></defs><defs><marker id="my-svg_er-oneOrMoreEnd" class="marker oneOrMore er" refX="27" refY="18" markerWidth="45" markerHeight="36" orient="auto"><path d="M3,9 L3,27 M9,18 Q27,0 45,18 Q27,36 9,18"/></marker></defs><defs><marker id="my-svg_er-zeroOrMoreStart" class="marker zeroOrMore er" refX="18" refY="18" markerWidth="57" markerHeight="36" orient="auto"><circle fill="white" cx="48" cy="18" r="6"/><path d="M0,18 Q18,0 36,18 Q18,36 0,18"/></marker></defs><defs><marker id="my-svg_er-zeroOrMoreEnd" class="marker zeroOrMore er" refX="39" refY="18" markerWidth="57" markerHeight="36" orient="auto"><circle fill="white" cx="9" cy="18" r="6"/><path d="M21,18 Q39,0 57,18 Q39,36 21,18"/></marker></defs><g class="root"><g class="clusters"/><g class="edgePaths"><path d="M142.63,350L141.024,358.417C139.417,366.833,136.205,383.667,134.599,407.625C132.992,431.583,132.992,462.667,132.992,478.208L132.992,493.75" id="my-svg-id_entity-definitions-0_entity-definition_versions-1_0" class="edge-thickness-normal edge-pattern-solid relationshipLine" style="undefined;;;undefined" data-edge="true" data-et="edge" data-id="id_entity-definitions-0_entity-definition_versions-1_0" data-points="W3sieCI6MTQyLjYzMDE0OTU0ODUzMjczLCJ5IjozNTB9LHsieCI6MTMyLjk5MjE4NzUsInkiOjQwMC41fSx7IngiOjEzMi45OTIxODc1LCJ5Ijo0OTMuNzV9XQ==" data-look="classic" marker-start="url(#my-svg_er-onlyOneStart)" marker-end="url(#my-svg_er-zeroOrMoreEnd)"/><path d="M298.914,311.1L312.861,326C326.807,340.9,354.701,370.7,373.545,394.017C392.39,417.333,402.186,434.167,407.085,442.583L411.983,451" id="my-svg-id_entity-definitions-0_entity-entries-2_1" class="edge-thickness-normal edge-pattern-solid relationshipLine" style="undefined;;;undefined" data-edge="true" data-et="edge" data-id="id_entity-definitions-0_entity-entries-2_1" data-points="W3sieCI6Mjk4LjkxNDA2MjUsInkiOjMxMS4xMDA0MDMxOTU0MTc5fSx7IngiOjM4Mi41OTM3NSwieSI6NDAwLjV9LHsieCI6NDExLjk4Mjc4ODU2NjczOTYsInkiOjQ1MX1d" data-look="classic" marker-start="url(#my-svg_er-onlyOneStart)" marker-end="url(#my-svg_er-zeroOrMoreEnd)"/><path d="M591.09,221.75L591.09,251.542C591.09,281.333,591.09,340.917,589.844,379.125C588.598,417.333,586.107,434.167,584.861,442.583L583.616,451" id="my-svg-id_entity-users-3_entity-entries-2_2" class="edge-thickness-normal edge-pattern-solid relationshipLine" style="undefined;;;undefined" data-edge="true" data-et="edge" data-id="id_entity-users-3_entity-entries-2_2" data-points="W3sieCI6NTkxLjA4OTg0Mzc1LCJ5IjoyMjEuNzV9LHsieCI6NTkxLjA4OTg0Mzc1LCJ5Ijo0MDAuNX0seyJ4Ijo1ODMuNjE1Njc3OTk1MDc2NiwieSI6NDUxfV0=" data-look="classic" marker-start="url(#my-svg_er-onlyOneStart)" marker-end="url(#my-svg_er-zeroOrMoreEnd)"/></g><g class="edgeLabels"><g class="edgeLabel" transform="translate(132.9921875, 400.5)"><g class="label" data-id="id_entity-definitions-0_entity-definition_versions-1_0" transform="translate(-56.8359375, -10.5)"><foreignObject width="113.671875" height="21"><div xmlns="http://www.w3.org/1999/xhtml" class="labelBkg" style="display: table-cell; white-space: nowrap; line-height: 1.5; max-width: 200px; text-align: center;"><span class="edgeLabel"><p>cascade on delete</p></span></div></foreignObject></g></g><g class="edgeLabel" transform="translate(360.71813, 377.12908)"><g class="label" data-id="id_entity-definitions-0_entity-entries-2_1" transform="translate(-7.7109375, -10.5)"><foreignObject width="15.421875" height="21"><div xmlns="http://www.w3.org/1999/xhtml" class="labelBkg" style="display: table-cell; white-space: nowrap; line-height: 1.5; max-width: 200px; text-align: center;"><span class="edgeLabel"><p>FK</p></span></div></foreignObject></g></g><g class="edgeLabel" transform="translate(591.08984375, 400.5)"><g class="label" data-id="id_entity-users-3_entity-entries-2_2" transform="translate(-56.8359375, -10.5)"><foreignObject width="113.671875" height="21"><div xmlns="http://www.w3.org/1999/xhtml" class="labelBkg" style="display: table-cell; white-space: nowrap; line-height: 1.5; max-width: 200px; text-align: center;"><span class="edgeLabel"><p>cascade on delete</p></span></div></foreignObject></g></g></g><g class="nodes"><g class="node default" id="my-svg-entity-definitions-0" data-look="classic" transform="translate(175.265625, 179)"><g class="outer-path" style=""><path d="M-123.6484375 -171 L123.6484375 -171 L123.6484375 171 L-123.6484375 171" stroke="none" stroke-width="0" fill="#ECECFF"/><path d="M-123.6484375 -171 C-58.263249209216355 -171, 7.121939081567291 -171, 123.6484375 -171 M-123.6484375 -171 C-70.3168295251252 -171, -16.985221550250415 -171, 123.6484375 -171 M123.6484375 -171 C123.6484375 -35.2745665339865, 123.6484375 100.450866932027, 123.6484375 171 M123.6484375 -171 C123.6484375 -83.34032840995911, 123.6484375 4.319343180081773, 123.6484375 171 M123.6484375 171 C35.60267848032707 171, -52.44308053934586 171, -123.6484375 171 M123.6484375 171 C66.77652978721238 171, 9.904622074424765 171, -123.6484375 171 M-123.6484375 171 C-123.6484375 59.19783132732009, -123.6484375 -52.60433734535982, -123.6484375 -171 M-123.6484375 171 C-123.6484375 65.40311562650571, -123.6484375 -40.19376874698858, -123.6484375 -171" stroke="#9370DB" stroke-width="1.3" fill="none" stroke-dasharray="0 0"/></g><g style="" class="row-rect-odd"><path d="M-123.6484375 -128.25 L123.6484375 -128.25 L123.6484375 -85.5 L-123.6484375 -85.5" stroke="none" stroke-width="0" fill="hsl(240, 100%, 100%)"/><path d="M-123.6484375 -128.25 C-62.66463410286755 -128.25, -1.6808307057351044 -128.25, 123.6484375 -128.25 M-123.6484375 -128.25 C-72.74121987727304 -128.25, -21.834002254546064 -128.25, 123.6484375 -128.25 M123.6484375 -128.25 C123.6484375 -114.83060849837563, 123.6484375 -101.41121699675125, 123.6484375 -85.5 M123.6484375 -128.25 C123.6484375 -114.69564820602022, 123.6484375 -101.14129641204045, 123.6484375 -85.5 M123.6484375 -85.5 C28.510532873008046 -85.5, -66.62737175398391 -85.5, -123.6484375 -85.5 M123.6484375 -85.5 C35.65899220195661 -85.5, -52.330453096086785 -85.5, -123.6484375 -85.5 M-123.6484375 -85.5 C-123.6484375 -94.83340917907027, -123.6484375 -104.16681835814053, -123.6484375 -128.25 M-123.6484375 -85.5 C-123.6484375 -97.36994566955347, -123.6484375 -109.23989133910695, -123.6484375 -128.25" stroke="#9370DB" stroke-width="1.3" fill="none" stroke-dasharray="0 0"/></g><g style="" class="row-rect-even"><path d="M-123.6484375 -85.5 L123.6484375 -85.5 L123.6484375 -42.75 L-123.6484375 -42.75" stroke="none" stroke-width="0" fill="hsl(240, 100%, 97.2745098039%)"/><path d="M-123.6484375 -85.5 C-27.738174848704602 -85.5, 68.1720878025908 -85.5, 123.6484375 -85.5 M-123.6484375 -85.5 C-37.96775547196707 -85.5, 47.71292655606587 -85.5, 123.6484375 -85.5 M123.6484375 -85.5 C123.6484375 -73.84215279113045, 123.6484375 -62.18430558226088, 123.6484375 -42.75 M123.6484375 -85.5 C123.6484375 -75.29474487846277, 123.6484375 -65.08948975692553, 123.6484375 -42.75 M123.6484375 -42.75 C73.1643129462601 -42.75, 22.680188392520193 -42.75, -123.6484375 -42.75 M123.6484375 -42.75 C64.76550044492095 -42.75, 5.882563389841906 -42.75, -123.6484375 -42.75 M-123.6484375 -42.75 C-123.6484375 -57.852636280255055, -123.6484375 -72.95527256051011, -123.6484375 -85.5 M-123.6484375 -42.75 C-123.6484375 -52.21299975551497, -123.6484375 -61.67599951102994, -123.6484375 -85.5" stroke="#9370DB" stroke-width="1.3" fill="none" stroke-dasharray="0 0"/></g><g style="" class="row-rect-odd"><path d="M-123.6484375 -42.75 L123.6484375 -42.75 L123.6484375 0 L-123.6484375 0" stroke="none" stroke-width="0" fill="hsl(240, 100%, 100%)"/><path d="M-123.6484375 -42.75 C-56.74450285074032 -42.75, 10.159431798519364 -42.75, 123.6484375 -42.75 M-123.6484375 -42.75 C-40.980693605101436 -42.75, 41.68705028979713 -42.75, 123.6484375 -42.75 M123.6484375 -42.75 C123.6484375 -33.34808757209501, 123.6484375 -23.946175144190025, 123.6484375 0 M123.6484375 -42.75 C123.6484375 -29.124523392441212, 123.6484375 -15.499046784882427, 123.6484375 0 M123.6484375 0 C39.67793564381455 0, -44.2925662123709 0, -123.6484375 0 M123.6484375 0 C48.46361716699364 0, -26.721203166012714 0, -123.6484375 0 M-123.6484375 0 C-123.6484375 -17.04620085974055, -123.6484375 -34.0924017194811, -123.6484375 -42.75 M-123.6484375 0 C-123.6484375 -9.33137875354787, -123.6484375 -18.66275750709574, -123.6484375 -42.75" stroke="#9370DB" stroke-width="1.3" fill="none" stroke-dasharray="0 0"/></g><g style="" class="row-rect-even"><path d="M-123.6484375 0 L123.6484375 0 L123.6484375 42.75 L-123.6484375 42.75" stroke="none" stroke-width="0" fill="hsl(240, 100%, 97.2745098039%)"/><path d="M-123.6484375 0 C-67.90938269870693 0, -12.17032789741387 0, 123.6484375 0 M-123.6484375 0 C-33.21455264012917 0, 57.21933221974166 0, 123.6484375 0 M123.6484375 0 C123.6484375 15.49106166148134, 123.6484375 30.98212332296268, 123.6484375 42.75 M123.6484375 0 C123.6484375 13.30562144826162, 123.6484375 26.61124289652324, 123.6484375 42.75 M123.6484375 42.75 C47.011169583949055 42.75, -29.62609833210189 42.75, -123.6484375 42.75 M123.6484375 42.75 C70.5401219841474 42.75, 17.43180646829481 42.75, -123.6484375 42.75 M-123.6484375 42.75 C-123.6484375 27.34610228299232, -123.6484375 11.942204565984639, -123.6484375 0 M-123.6484375 42.75 C-123.6484375 28.403246641411382, -123.6484375 14.056493282822764, -123.6484375 0" stroke="#9370DB" stroke-width="1.3" fill="none" stroke-dasharray="0 0"/></g><g style="" class="row-rect-odd"><path d="M-123.6484375 42.75 L123.6484375 42.75 L123.6484375 85.5 L-123.6484375 85.5" stroke="none" stroke-width="0" fill="hsl(240, 100%, 100%)"/><path d="M-123.6484375 42.75 C-44.40377517902411 42.75, 34.84088714195178 42.75, 123.6484375 42.75 M-123.6484375 42.75 C-55.817773244773875 42.75, 12.01289101045225 42.75, 123.6484375 42.75 M123.6484375 42.75 C123.6484375 55.33462363889592, 123.6484375 67.91924727779184, 123.6484375 85.5 M123.6484375 42.75 C123.6484375 55.30661513916199, 123.6484375 67.86323027832398, 123.6484375 85.5 M123.6484375 85.5 C28.518605571386217 85.5, -66.61122635722757 85.5, -123.6484375 85.5 M123.6484375 85.5 C72.12796139583394 85.5, 20.60748529166787 85.5, -123.6484375 85.5 M-123.6484375 85.5 C-123.6484375 74.37368329565918, -123.6484375 63.24736659131835, -123.6484375 42.75 M-123.6484375 85.5 C-123.6484375 74.60313800384274, -123.6484375 63.706276007685496, -123.6484375 42.75" stroke="#9370DB" stroke-width="1.3" fill="none" stroke-dasharray="0 0"/></g><g style="" class="row-rect-even"><path d="M-123.6484375 85.5 L123.6484375 85.5 L123.6484375 128.25 L-123.6484375 128.25" stroke="none" stroke-width="0" fill="hsl(240, 100%, 97.2745098039%)"/><path d="M-123.6484375 85.5 C-41.71724969133034 85.5, 40.213938117339325 85.5, 123.6484375 85.5 M-123.6484375 85.5 C-54.65512311364276 85.5, 14.338191272714482 85.5, 123.6484375 85.5 M123.6484375 85.5 C123.6484375 94.05644822117966, 123.6484375 102.61289644235933, 123.6484375 128.25 M123.6484375 85.5 C123.6484375 100.44565390804193, 123.6484375 115.39130781608385, 123.6484375 128.25 M123.6484375 128.25 C30.058240323482366 128.25, -63.53195685303527 128.25, -123.6484375 128.25 M123.6484375 128.25 C28.29549265786075 128.25, -67.0574521842785 128.25, -123.6484375 128.25 M-123.6484375 128.25 C-123.6484375 118.41866253783945, -123.6484375 108.58732507567892, -123.6484375 85.5 M-123.6484375 128.25 C-123.6484375 111.8345354756095, -123.6484375 95.41907095121898, -123.6484375 85.5" stroke="#9370DB" stroke-width="1.3" fill="none" stroke-dasharray="0 0"/></g><g style="" class="row-rect-odd"><path d="M-123.6484375 128.25 L123.6484375 128.25 L123.6484375 171 L-123.6484375 171" stroke="none" stroke-width="0" fill="hsl(240, 100%, 100%)"/><path d="M-123.6484375 128.25 C-30.619241925392032 128.25, 62.409953649215936 128.25, 123.6484375 128.25 M-123.6484375 128.25 C-47.59231391343613 128.25, 28.46380967312774 128.25, 123.6484375 128.25 M123.6484375 128.25 C123.6484375 138.13978565865926, 123.6484375 148.0295713173185, 123.6484375 171 M123.6484375 128.25 C123.6484375 144.58319524073866, 123.6484375 160.91639048147732, 123.6484375 171 M123.6484375 171 C65.47258555012668 171, 7.296733600253361 171, -123.6484375 171 M123.6484375 171 C25.87395679675589 171, -71.90052390648822 171, -123.6484375 171 M-123.6484375 171 C-123.6484375 155.71731328080597, -123.6484375 140.43462656161196, -123.6484375 128.25 M-123.6484375 171 C-123.6484375 155.42286136258707, -123.6484375 139.8457227251741, -123.6484375 128.25" stroke="#9370DB" stroke-width="1.3" fill="none" stroke-dasharray="0 0"/></g><g class="label name" transform="translate(-38.0703125, -161.625)" style=""><foreignObject width="76.140625" height="24"><div xmlns="http://www.w3.org/1999/xhtml" style="display: table-cell; white-space: nowrap; line-height: 1.5; max-width: 168px; text-align: start;"><span class="nodeLabel"><p>definitions</p></span></div></foreignObject></g><g class="label attribute-type" transform="translate(-111.1484375, -118.875)" style=""><foreignObject width="30.96875" height="24"><div xmlns="http://www.w3.org/1999/xhtml" style="display: table-cell; white-space: nowrap; line-height: 1.5; max-width: 128px; text-align: start;"><span class="nodeLabel"><p>uuid</p></span></div></foreignObject></g><g class="label attribute-name" transform="translate(-20.8359375, -118.875)" style=""><foreignObject width="13.484375" height="24"><div xmlns="http://www.w3.org/1999/xhtml" style="display: table-cell; white-space: nowrap; line-height: 1.5; max-width: 112px; text-align: start;"><span class="nodeLabel"><p>id</p></span></div></foreignObject></g><g class="label attribute-keys" transform="translate(93.0078125, -118.875)" style=""><foreignObject width="18.140625" height="24"><div xmlns="http://www.w3.org/1999/xhtml" style="display: table-cell; white-space: nowrap; line-height: 1.5; max-width: 121px; text-align: start;"><span class="nodeLabel"><p>PK</p></span></div></foreignObject></g><g class="label attribute-comment" transform="translate(136.1484375, -118.875)" style=""><foreignObject width="0" height="0"><div xmlns="http://www.w3.org/1999/xhtml" style="display: table-cell; white-space: nowrap; line-height: 1.5; max-width: 100px; text-align: start;"><span class="nodeLabel"></span></div></foreignObject></g><g class="label attribute-type" transform="translate(-111.1484375, -76.125)" style=""><foreignObject width="40.375" height="24"><div xmlns="http://www.w3.org/1999/xhtml" style="display: table-cell; white-space: nowrap; line-height: 1.5; max-width: 136px; text-align: start;"><span class="nodeLabel"><p>string</p></span></div></foreignObject></g><g class="label attribute-name" transform="translate(-20.8359375, -76.125)" style=""><foreignObject width="79.609375" height="24"><div xmlns="http://www.w3.org/1999/xhtml" style="display: table-cell; white-space: nowrap; line-height: 1.5; max-width: 170px; text-align: start;"><span class="nodeLabel"><p>namespace</p></span></div></foreignObject></g><g class="label attribute-keys" transform="translate(93.0078125, -76.125)" style=""><foreignObject width="0" height="0"><div xmlns="http://www.w3.org/1999/xhtml" style="display: table-cell; white-space: nowrap; line-height: 1.5; max-width: 100px; text-align: start;"><span class="nodeLabel"></span></div></foreignObject></g><g class="label attribute-comment" transform="translate(136.1484375, -76.125)" style=""><foreignObject width="0" height="0"><div xmlns="http://www.w3.org/1999/xhtml" style="display: table-cell; white-space: nowrap; line-height: 1.5; max-width: 100px; text-align: start;"><span class="nodeLabel"></span></div></foreignObject></g><g class="label attribute-type" transform="translate(-111.1484375, -33.375)" style=""><foreignObject width="40.375" height="24"><div xmlns="http://www.w3.org/1999/xhtml" style="display: table-cell; white-space: nowrap; line-height: 1.5; max-width: 136px; text-align: start;"><span class="nodeLabel"><p>string</p></span></div></foreignObject></g><g class="label attribute-name" transform="translate(-20.8359375, -33.375)" style=""><foreignObject width="27.96875" height="24"><div xmlns="http://www.w3.org/1999/xhtml" style="display: table-cell; white-space: nowrap; line-height: 1.5; max-width: 127px; text-align: start;"><span class="nodeLabel"><p>slug</p></span></div></foreignObject></g><g class="label attribute-keys" transform="translate(93.0078125, -33.375)" style=""><foreignObject width="0" height="0"><div xmlns="http://www.w3.org/1999/xhtml" style="display: table-cell; white-space: nowrap; line-height: 1.5; max-width: 100px; text-align: start;"><span class="nodeLabel"></span></div></foreignObject></g><g class="label attribute-comment" transform="translate(136.1484375, -33.375)" style=""><foreignObject width="0" height="0"><div xmlns="http://www.w3.org/1999/xhtml" style="display: table-cell; white-space: nowrap; line-height: 1.5; max-width: 100px; text-align: start;"><span class="nodeLabel"></span></div></foreignObject></g><g class="label attribute-type" transform="translate(-111.1484375, 9.375)" style=""><foreignObject width="40.375" height="24"><div xmlns="http://www.w3.org/1999/xhtml" style="display: table-cell; white-space: nowrap; line-height: 1.5; max-width: 136px; text-align: start;"><span class="nodeLabel"><p>string</p></span></div></foreignObject></g><g class="label attribute-name" transform="translate(-20.8359375, 9.375)" style=""><foreignObject width="39.15625" height="24"><div xmlns="http://www.w3.org/1999/xhtml" style="display: table-cell; white-space: nowrap; line-height: 1.5; max-width: 135px; text-align: start;"><span class="nodeLabel"><p>name</p></span></div></foreignObject></g><g class="label attribute-keys" transform="translate(93.0078125, 9.375)" style=""><foreignObject width="0" height="0"><div xmlns="http://www.w3.org/1999/xhtml" style="display: table-cell; white-space: nowrap; line-height: 1.5; max-width: 100px; text-align: start;"><span class="nodeLabel"></span></div></foreignObject></g><g class="label attribute-comment" transform="translate(136.1484375, 9.375)" style=""><foreignObject width="0" height="0"><div xmlns="http://www.w3.org/1999/xhtml" style="display: table-cell; white-space: nowrap; line-height: 1.5; max-width: 100px; text-align: start;"><span class="nodeLabel"></span></div></foreignObject></g><g class="label attribute-type" transform="translate(-111.1484375, 52.125)" style=""><foreignObject width="19.65625" height="24"><div xmlns="http://www.w3.org/1999/xhtml" style="display: table-cell; white-space: nowrap; line-height: 1.5; max-width: 117px; text-align: start;"><span class="nodeLabel"><p>int</p></span></div></foreignObject></g><g class="label attribute-name" transform="translate(-20.8359375, 52.125)" style=""><foreignObject width="88.84375" height="24"><div xmlns="http://www.w3.org/1999/xhtml" style="display: table-cell; white-space: nowrap; line-height: 1.5; max-width: 183px; text-align: start;"><span class="nodeLabel"><p>lock_version</p></span></div></foreignObject></g><g class="label attribute-keys" transform="translate(93.0078125, 52.125)" style=""><foreignObject width="0" height="0"><div xmlns="http://www.w3.org/1999/xhtml" style="display: table-cell; white-space: nowrap; line-height: 1.5; max-width: 100px; text-align: start;"><span class="nodeLabel"></span></div></foreignObject></g><g class="label attribute-comment" transform="translate(136.1484375, 52.125)" style=""><foreignObject width="0" height="0"><div xmlns="http://www.w3.org/1999/xhtml" style="display: table-cell; white-space: nowrap; line-height: 1.5; max-width: 100px; text-align: start;"><span class="nodeLabel"></span></div></foreignObject></g><g class="label attribute-type" transform="translate(-111.1484375, 94.875)" style=""><foreignObject width="65.3125" height="24"><div xmlns="http://www.w3.org/1999/xhtml" style="display: table-cell; white-space: nowrap; line-height: 1.5; max-width: 155px; text-align: start;"><span class="nodeLabel"><p>datetime</p></span></div></foreignObject></g><g class="label attribute-name" transform="translate(-20.8359375, 94.875)" style=""><foreignObject width="78.40625" height="24"><div xmlns="http://www.w3.org/1999/xhtml" style="display: table-cell; white-space: nowrap; line-height: 1.5; max-width: 166px; text-align: start;"><span class="nodeLabel"><p>created_at</p></span></div></foreignObject></g><g class="label attribute-keys" transform="translate(93.0078125, 94.875)" style=""><foreignObject width="0" height="0"><div xmlns="http://www.w3.org/1999/xhtml" style="display: table-cell; white-space: nowrap; line-height: 1.5; max-width: 100px; text-align: start;"><span class="nodeLabel"></span></div></foreignObject></g><g class="label attribute-comment" transform="translate(136.1484375, 94.875)" style=""><foreignObject width="0" height="0"><div xmlns="http://www.w3.org/1999/xhtml" style="display: table-cell; white-space: nowrap; line-height: 1.5; max-width: 100px; text-align: start;"><span class="nodeLabel"></span></div></foreignObject></g><g class="label attribute-type" transform="translate(-111.1484375, 137.625)" style=""><foreignObject width="65.3125" height="24"><div xmlns="http://www.w3.org/1999/xhtml" style="display: table-cell; white-space: nowrap; line-height: 1.5; max-width: 155px; text-align: start;"><span class="nodeLabel"><p>datetime</p></span></div></foreignObject></g><g class="label attribute-name" transform="translate(-20.8359375, 137.625)" style=""><foreignObject width="82.109375" height="24"><div xmlns="http://www.w3.org/1999/xhtml" style="display: table-cell; white-space: nowrap; line-height: 1.5; max-width: 170px; text-align: start;"><span class="nodeLabel"><p>updated_at</p></span></div></foreignObject></g><g class="label attribute-keys" transform="translate(93.0078125, 137.625)" style=""><foreignObject width="0" height="0"><div xmlns="http://www.w3.org/1999/xhtml" style="display: table-cell; white-space: nowrap; line-height: 1.5; max-width: 100px; text-align: start;"><span class="nodeLabel"></span></div></foreignObject></g><g class="label attribute-comment" transform="translate(136.1484375, 137.625)" style=""><foreignObject width="0" height="0"><div xmlns="http://www.w3.org/1999/xhtml" style="display: table-cell; white-space: nowrap; line-height: 1.5; max-width: 100px; text-align: start;"><span class="nodeLabel"></span></div></foreignObject></g><g class="divider"><path d="M-123.6484375 -128.25005 L-123.6484375 -128.24995 L123.6484375 -128.24995 L123.6484375 -128.25005" stroke="none" stroke-width="0" fill="#ECECFF" fill-rule="evenodd"/><path d="M-123.6484375 -128.25005 C-123.6484375 -128.25002598784522, -123.6484375 -128.25000197569042, -123.6484375 -128.24995 M-123.6484375 -128.25005 C-123.6484375 -128.25001851149614, -123.6484375 -128.24998702299231, -123.6484375 -128.24995 M-123.6484375 -128.24995 C-63.82728580915227 -128.24995, -4.006134118304544 -128.24995, 123.6484375 -128.24995 M-123.6484375 -128.24995 C-60.85091192210486 -128.24995, 1.946613655790273 -128.24995, 123.6484375 -128.24995 M123.6484375 -128.24995 C123.6484375 -128.24998179986997, 123.6484375 -128.25001359973996, 123.6484375 -128.25005 M123.6484375 -128.24995 C123.6484375 -128.24998771226265, 123.6484375 -128.25002542452526, 123.6484375 -128.25005 M123.6484375 -128.25005 C71.71711757618485 -128.25005, 19.785797652369695 -128.25005, -123.6484375 -128.25005 M123.6484375 -128.25005 C71.98092793616406 -128.25005, 20.31341837232813 -128.25005, -123.6484375 -128.25005" stroke="#9370DB" stroke-width="1.3" fill="none" stroke-dasharray="0 0"/></g><g class="divider"><path d="M-33.3359875 -128.25 L-33.3358875 -128.25 L-33.3358875 171 L-33.3359875 171" stroke="none" stroke-width="0" fill="#ECECFF" fill-rule="evenodd"/><path d="M-33.3359875 -128.25 C-33.33595466405828 -128.25, -33.33592182811656 -128.25, -33.3358875 -128.25 M-33.3359875 -128.25 C-33.33596236400035 -128.25, -33.3359372280007 -128.25, -33.3358875 -128.25 M-33.3358875 -128.25 C-33.3358875 -45.833056465603036, -33.3358875 36.58388706879393, -33.3358875 171 M-33.3358875 -128.25 C-33.3358875 -49.013020178695626, -33.3358875 30.223959642608747, -33.3358875 171 M-33.3358875 171 C-33.33592584019704 171, -33.33596418039409 171, -33.3359875 171 M-33.3358875 171 C-33.3359229260467 171, -33.33595835209339 171, -33.3359875 171 M-33.3359875 171 C-33.3359875 101.54614810059849, -33.3359875 32.09229620119697, -33.3359875 -128.25 M-33.3359875 171 C-33.3359875 60.619323794639286, -33.3359875 -49.76135241072143, -33.3359875 -128.25" stroke="#9370DB" stroke-width="1.3" fill="none" stroke-dasharray="0 0"/></g><g class="divider"><path d="M80.5077625 -128.25 L80.5078625 -128.25 L80.5078625 171 L80.5077625 171" stroke="none" stroke-width="0" fill="#ECECFF" fill-rule="evenodd"/><path d="M80.5077625 -128.25 C80.5077913160776 -128.25, 80.5078201321552 -128.25, 80.5078625 -128.25 M80.5077625 -128.25 C80.50780015530482 -128.25, 80.50783781060963 -128.25, 80.5078625 -128.25 M80.5078625 -128.25 C80.5078625 -47.27410888388776, 80.5078625 33.701782232224474, 80.5078625 171 M80.5078625 -128.25 C80.5078625 -27.592045180548695, 80.5078625 73.06590963890261, 80.5078625 171 M80.5078625 171 C80.50782283469773 171, 80.50778316939547 171, 80.5077625 171 M80.5078625 171 C80.5078350763015 171, 80.507807652603 171, 80.5077625 171 M80.5077625 171 C80.5077625 87.08098512085334, 80.5077625 3.1619702417066833, 80.5077625 -128.25 M80.5077625 171 C80.5077625 74.30190856202705, 80.5077625 -22.396182875945897, 80.5077625 -128.25" stroke="#9370DB" stroke-width="1.3" fill="none" stroke-dasharray="0 0"/></g><g class="divider"><path d="M-123.6484375 -128.25005 L-123.6484375 -128.24995 L123.6484375 -128.24995 L123.6484375 -128.25005" stroke="none" stroke-width="0" fill="#ECECFF" fill-rule="evenodd"/><path d="M-123.6484375 -128.25005 C-123.6484375 -128.2500147271035, -123.6484375 -128.24997945420702, -123.6484375 -128.24995 M-123.6484375 -128.25005 C-123.6484375 -128.25002834470106, -123.6484375 -128.25000668940214, -123.6484375 -128.24995 M-123.6484375 -128.24995 C-44.4634101925858 -128.24995, 34.721617114828405 -128.24995, 123.6484375 -128.24995 M-123.6484375 -128.24995 C-30.33617388824075 -128.24995, 62.9760897235185 -128.24995, 123.6484375 -128.24995 M123.6484375 -128.24995 C123.6484375 -128.24997094739973, 123.6484375 -128.24999189479942, 123.6484375 -128.25005 M123.6484375 -128.24995 C123.6484375 -128.2499858136138, 123.6484375 -128.2500216272276, 123.6484375 -128.25005 M123.6484375 -128.25005 C31.1178633090193 -128.25005, -61.4127108819614 -128.25005, -123.6484375 -128.25005 M123.6484375 -128.25005 C49.18023991121974 -128.25005, -25.287957677560513 -128.25005, -123.6484375 -128.25005" stroke="#9370DB" stroke-width="1.3" fill="none" stroke-dasharray="0 0"/></g></g><g class="node default" id="my-svg-entity-definition_versions-1" data-look="classic" transform="translate(132.9921875, 686.125)"><g class="outer-path" style=""><path d="M-124.9921875 -192.375 L124.9921875 -192.375 L124.9921875 192.375 L-124.9921875 192.375" stroke="none" stroke-width="0" fill="#ECECFF"/><path d="M-124.9921875 -192.375 C-65.34105109739177 -192.375, -5.689914694783539 -192.375, 124.9921875 -192.375 M-124.9921875 -192.375 C-72.90401903503187 -192.375, -20.815850570063716 -192.375, 124.9921875 -192.375 M124.9921875 -192.375 C124.9921875 -63.906535748063106, 124.9921875 64.56192850387379, 124.9921875 192.375 M124.9921875 -192.375 C124.9921875 -90.07261561439614, 124.9921875 12.229768771207716, 124.9921875 192.375 M124.9921875 192.375 C68.66610818321399 192.375, 12.340028866427986 192.375, -124.9921875 192.375 M124.9921875 192.375 C25.503977551419737 192.375, -73.98423239716053 192.375, -124.9921875 192.375 M-124.9921875 192.375 C-124.9921875 45.211526710748046, -124.9921875 -101.95194657850391, -124.9921875 -192.375 M-124.9921875 192.375 C-124.9921875 45.00005971596002, -124.9921875 -102.37488056807996, -124.9921875 -192.375" stroke="#9370DB" stroke-width="1.3" fill="none" stroke-dasharray="0 0"/></g><g style="" class="row-rect-odd"><path d="M-124.9921875 -149.625 L124.9921875 -149.625 L124.9921875 -106.875 L-124.9921875 -106.875" stroke="none" stroke-width="0" fill="hsl(240, 100%, 100%)"/><path d="M-124.9921875 -149.625 C-62.06454188711484 -149.625, 0.8631037257703156 -149.625, 124.9921875 -149.625 M-124.9921875 -149.625 C-28.78548353421671 -149.625, 67.42122043156658 -149.625, 124.9921875 -149.625 M124.9921875 -149.625 C124.9921875 -132.83626978423771, 124.9921875 -116.04753956847543, 124.9921875 -106.875 M124.9921875 -149.625 C124.9921875 -133.55721721793427, 124.9921875 -117.48943443586853, 124.9921875 -106.875 M124.9921875 -106.875 C33.918913163222214 -106.875, -57.15436117355557 -106.875, -124.9921875 -106.875 M124.9921875 -106.875 C29.98237761812493 -106.875, -65.02743226375014 -106.875, -124.9921875 -106.875 M-124.9921875 -106.875 C-124.9921875 -115.88205176374264, -124.9921875 -124.88910352748528, -124.9921875 -149.625 M-124.9921875 -106.875 C-124.9921875 -117.17799275192036, -124.9921875 -127.4809855038407, -124.9921875 -149.625" stroke="#9370DB" stroke-width="1.3" fill="none" stroke-dasharray="0 0"/></g><g style="" class="row-rect-even"><path d="M-124.9921875 -106.875 L124.9921875 -106.875 L124.9921875 -64.125 L-124.9921875 -64.125" stroke="none" stroke-width="0" fill="hsl(240, 100%, 97.2745098039%)"/><path d="M-124.9921875 -106.875 C-26.16956535250641 -106.875, 72.65305679498718 -106.875, 124.9921875 -106.875 M-124.9921875 -106.875 C-46.68534138933664 -106.875, 31.621504721326716 -106.875, 124.9921875 -106.875 M124.9921875 -106.875 C124.9921875 -91.97689671061163, 124.9921875 -77.07879342122325, 124.9921875 -64.125 M124.9921875 -106.875 C124.9921875 -92.88787653150615, 124.9921875 -78.9007530630123, 124.9921875 -64.125 M124.9921875 -64.125 C40.35905241573393 -64.125, -44.274082668532145 -64.125, -124.9921875 -64.125 M124.9921875 -64.125 C41.00874209337931 -64.125, -42.97470331324138 -64.125, -124.9921875 -64.125 M-124.9921875 -64.125 C-124.9921875 -74.18355884214184, -124.9921875 -84.24211768428368, -124.9921875 -106.875 M-124.9921875 -64.125 C-124.9921875 -76.2013596923689, -124.9921875 -88.2777193847378, -124.9921875 -106.875" stroke="#9370DB" stroke-width="1.3" fill="none" stroke-dasharray="0 0"/></g><g style="" class="row-rect-odd"><path d="M-124.9921875 -64.125 L124.9921875 -64.125 L124.9921875 -21.375 L-124.9921875 -21.375" stroke="none" stroke-width="0" fill="hsl(240, 100%, 100%)"/><path d="M-124.9921875 -64.125 C-60.03367024738775 -64.125, 4.924847005224507 -64.125, 124.9921875 -64.125 M-124.9921875 -64.125 C-35.43439055411275 -64.125, 54.123406391774495 -64.125, 124.9921875 -64.125 M124.9921875 -64.125 C124.9921875 -48.628174671898854, 124.9921875 -33.13134934379771, 124.9921875 -21.375 M124.9921875 -64.125 C124.9921875 -49.46369809137381, 124.9921875 -34.802396182747614, 124.9921875 -21.375 M124.9921875 -21.375 C65.2668113905205 -21.375, 5.541435281041004 -21.375, -124.9921875 -21.375 M124.9921875 -21.375 C63.348082804002615 -21.375, 1.7039781080052308 -21.375, -124.9921875 -21.375 M-124.9921875 -21.375 C-124.9921875 -36.736472675953465, -124.9921875 -52.09794535190692, -124.9921875 -64.125 M-124.9921875 -21.375 C-124.9921875 -33.87108912359937, -124.9921875 -46.36717824719874, -124.9921875 -64.125" stroke="#9370DB" stroke-width="1.3" fill="none" stroke-dasharray="0 0"/></g><g style="" class="row-rect-even"><path d="M-124.9921875 -21.375 L124.9921875 -21.375 L124.9921875 21.375 L-124.9921875 21.375" stroke="none" stroke-width="0" fill="hsl(240, 100%, 97.2745098039%)"/><path d="M-124.9921875 -21.375 C-48.26574098119927 -21.375, 28.460705537601456 -21.375, 124.9921875 -21.375 M-124.9921875 -21.375 C-71.50473664390046 -21.375, -18.01728578780093 -21.375, 124.9921875 -21.375 M124.9921875 -21.375 C124.9921875 -11.415125197208388, 124.9921875 -1.455250394416776, 124.9921875 21.375 M124.9921875 -21.375 C124.9921875 -11.299215392756148, 124.9921875 -1.2234307855122957, 124.9921875 21.375 M124.9921875 21.375 C45.20614094949666 21.375, -34.579905601006686 21.375, -124.9921875 21.375 M124.9921875 21.375 C50.237581285167835 21.375, -24.51702492966433 21.375, -124.9921875 21.375 M-124.9921875 21.375 C-124.9921875 9.829650900763728, -124.9921875 -1.7156981984725448, -124.9921875 -21.375 M-124.9921875 21.375 C-124.9921875 11.757380432677298, -124.9921875 2.139760865354596, -124.9921875 -21.375" stroke="#9370DB" stroke-width="1.3" fill="none" stroke-dasharray="0 0"/></g><g style="" class="row-rect-odd"><path d="M-124.9921875 21.375 L124.9921875 21.375 L124.9921875 64.125 L-124.9921875 64.125" stroke="none" stroke-width="0" fill="hsl(240, 100%, 100%)"/><path d="M-124.9921875 21.375 C-49.61177747917418 21.375, 25.76863254165164 21.375, 124.9921875 21.375 M-124.9921875 21.375 C-50.01359790400612 21.375, 24.964991691987763 21.375, 124.9921875 21.375 M124.9921875 21.375 C124.9921875 34.08323112125029, 124.9921875 46.791462242500586, 124.9921875 64.125 M124.9921875 21.375 C124.9921875 37.3257297367268, 124.9921875 53.2764594734536, 124.9921875 64.125 M124.9921875 64.125 C67.17703841928642 64.125, 9.361889338572837 64.125, -124.9921875 64.125 M124.9921875 64.125 C36.5557963040451 64.125, -51.880594891909794 64.125, -124.9921875 64.125 M-124.9921875 64.125 C-124.9921875 51.1199041387668, -124.9921875 38.11480827753359, -124.9921875 21.375 M-124.9921875 64.125 C-124.9921875 53.368813487599795, -124.9921875 42.61262697519959, -124.9921875 21.375" stroke="#9370DB" stroke-width="1.3" fill="none" stroke-dasharray="0 0"/></g><g style="" class="row-rect-even"><path d="M-124.9921875 64.125 L124.9921875 64.125 L124.9921875 106.875 L-124.9921875 106.875" stroke="none" stroke-width="0" fill="hsl(240, 100%, 97.2745098039%)"/><path d="M-124.9921875 64.125 C-60.75727252621425 64.125, 3.4776424475714975 64.125, 124.9921875 64.125 M-124.9921875 64.125 C-72.21967355483153 64.125, -19.447159609663046 64.125, 124.9921875 64.125 M124.9921875 64.125 C124.9921875 77.80736875677545, 124.9921875 91.4897375135509, 124.9921875 106.875 M124.9921875 64.125 C124.9921875 78.9340865191887, 124.9921875 93.74317303837739, 124.9921875 106.875 M124.9921875 106.875 C39.964119426680256 106.875, -45.06394864663949 106.875, -124.9921875 106.875 M124.9921875 106.875 C70.34431814445051 106.875, 15.696448788901009 106.875, -124.9921875 106.875 M-124.9921875 106.875 C-124.9921875 92.43425679931077, -124.9921875 77.99351359862156, -124.9921875 64.125 M-124.9921875 106.875 C-124.9921875 91.39600327510101, -124.9921875 75.91700655020202, -124.9921875 64.125" stroke="#9370DB" stroke-width="1.3" fill="none" stroke-dasharray="0 0"/></g><g style="" class="row-rect-odd"><path d="M-124.9921875 106.875 L124.9921875 106.875 L124.9921875 149.625 L-124.9921875 149.625" stroke="none" stroke-width="0" fill="hsl(240, 100%, 100%)"/><path d="M-124.9921875 106.875 C-65.09293308852206 106.875, -5.193678677044119 106.875, 124.9921875 106.875 M-124.9921875 106.875 C-57.35896020046003 106.875, 10.274267099079935 106.875, 124.9921875 106.875 M124.9921875 106.875 C124.9921875 118.97491428789667, 124.9921875 131.07482857579333, 124.9921875 149.625 M124.9921875 106.875 C124.9921875 121.99599163996793, 124.9921875 137.11698327993585, 124.9921875 149.625 M124.9921875 149.625 C43.863278555716036 149.625, -37.26563038856793 149.625, -124.9921875 149.625 M124.9921875 149.625 C61.82189040665071 149.625, -1.3484066866985813 149.625, -124.9921875 149.625 M-124.9921875 149.625 C-124.9921875 133.04384223107078, -124.9921875 116.46268446214154, -124.9921875 106.875 M-124.9921875 149.625 C-124.9921875 140.77941822624646, -124.9921875 131.93383645249293, -124.9921875 106.875" stroke="#9370DB" stroke-width="1.3" fill="none" stroke-dasharray="0 0"/></g><g style="" class="row-rect-even"><path d="M-124.9921875 149.625 L124.9921875 149.625 L124.9921875 192.375 L-124.9921875 192.375" stroke="none" stroke-width="0" fill="hsl(240, 100%, 97.2745098039%)"/><path d="M-124.9921875 149.625 C-30.20791698559799 149.625, 64.57635352880402 149.625, 124.9921875 149.625 M-124.9921875 149.625 C-44.6774377397369 149.625, 35.637312020526196 149.625, 124.9921875 149.625 M124.9921875 149.625 C124.9921875 165.4775777122924, 124.9921875 181.3301554245848, 124.9921875 192.375 M124.9921875 149.625 C124.9921875 159.28952009643177, 124.9921875 168.95404019286357, 124.9921875 192.375 M124.9921875 192.375 C32.317490949820126 192.375, -60.35720560035975 192.375, -124.9921875 192.375 M124.9921875 192.375 C25.906808977701303 192.375, -73.1785695445974 192.375, -124.9921875 192.375 M-124.9921875 192.375 C-124.9921875 178.2958497819839, -124.9921875 164.21669956396778, -124.9921875 149.625 M-124.9921875 192.375 C-124.9921875 181.66418280510857, -124.9921875 170.95336561021713, -124.9921875 149.625" stroke="#9370DB" stroke-width="1.3" fill="none" stroke-dasharray="0 0"/></g><g class="label name" transform="translate(-67.8359375, -183)" style=""><foreignObject width="135.671875" height="24"><div xmlns="http://www.w3.org/1999/xhtml" style="display: table-cell; white-space: nowrap; line-height: 1.5; max-width: 224px; text-align: start;"><span class="nodeLabel"><p>definition_versions</p></span></div></foreignObject></g><g class="label attribute-type" transform="translate(-112.4921875, -140.25)" style=""><foreignObject width="30.96875" height="24"><div xmlns="http://www.w3.org/1999/xhtml" style="display: table-cell; white-space: nowrap; line-height: 1.5; max-width: 128px; text-align: start;"><span class="nodeLabel"><p>uuid</p></span></div></foreignObject></g><g class="label attribute-name" transform="translate(-22.1796875, -140.25)" style=""><foreignObject width="13.484375" height="24"><div xmlns="http://www.w3.org/1999/xhtml" style="display: table-cell; white-space: nowrap; line-height: 1.5; max-width: 112px; text-align: start;"><span class="nodeLabel"><p>id</p></span></div></foreignObject></g><g class="label attribute-keys" transform="translate(94.3515625, -140.25)" style=""><foreignObject width="18.140625" height="24"><div xmlns="http://www.w3.org/1999/xhtml" style="display: table-cell; white-space: nowrap; line-height: 1.5; max-width: 121px; text-align: start;"><span class="nodeLabel"><p>PK</p></span></div></foreignObject></g><g class="label attribute-comment" transform="translate(137.4921875, -140.25)" style=""><foreignObject width="0" height="0"><div xmlns="http://www.w3.org/1999/xhtml" style="display: table-cell; white-space: nowrap; line-height: 1.5; max-width: 100px; text-align: start;"><span class="nodeLabel"></span></div></foreignObject></g><g class="label attribute-type" transform="translate(-112.4921875, -97.5)" style=""><foreignObject width="30.96875" height="24"><div xmlns="http://www.w3.org/1999/xhtml" style="display: table-cell; white-space: nowrap; line-height: 1.5; max-width: 128px; text-align: start;"><span class="nodeLabel"><p>uuid</p></span></div></foreignObject></g><g class="label attribute-name" transform="translate(-22.1796875, -97.5)" style=""><foreignObject width="91.53125" height="24"><div xmlns="http://www.w3.org/1999/xhtml" style="display: table-cell; white-space: nowrap; line-height: 1.5; max-width: 183px; text-align: start;"><span class="nodeLabel"><p>definition_id</p></span></div></foreignObject></g><g class="label attribute-keys" transform="translate(94.3515625, -97.5)" style=""><foreignObject width="17.609375" height="24"><div xmlns="http://www.w3.org/1999/xhtml" style="display: table-cell; white-space: nowrap; line-height: 1.5; max-width: 121px; text-align: start;"><span class="nodeLabel"><p>FK</p></span></div></foreignObject></g><g class="label attribute-comment" transform="translate(137.4921875, -97.5)" style=""><foreignObject width="0" height="0"><div xmlns="http://www.w3.org/1999/xhtml" style="display: table-cell; white-space: nowrap; line-height: 1.5; max-width: 100px; text-align: start;"><span class="nodeLabel"></span></div></foreignObject></g><g class="label attribute-type" transform="translate(-112.4921875, -54.75)" style=""><foreignObject width="19.65625" height="24"><div xmlns="http://www.w3.org/1999/xhtml" style="display: table-cell; white-space: nowrap; line-height: 1.5; max-width: 117px; text-align: start;"><span class="nodeLabel"><p>int</p></span></div></foreignObject></g><g class="label attribute-name" transform="translate(-22.1796875, -54.75)" style=""><foreignObject width="51.15625" height="24"><div xmlns="http://www.w3.org/1999/xhtml" style="display: table-cell; white-space: nowrap; line-height: 1.5; max-width: 147px; text-align: start;"><span class="nodeLabel"><p>version</p></span></div></foreignObject></g><g class="label attribute-keys" transform="translate(94.3515625, -54.75)" style=""><foreignObject width="0" height="0"><div xmlns="http://www.w3.org/1999/xhtml" style="display: table-cell; white-space: nowrap; line-height: 1.5; max-width: 100px; text-align: start;"><span class="nodeLabel"></span></div></foreignObject></g><g class="label attribute-comment" transform="translate(137.4921875, -54.75)" style=""><foreignObject width="0" height="0"><div xmlns="http://www.w3.org/1999/xhtml" style="display: table-cell; white-space: nowrap; line-height: 1.5; max-width: 100px; text-align: start;"><span class="nodeLabel"></span></div></foreignObject></g><g class="label attribute-type" transform="translate(-112.4921875, -12)" style=""><foreignObject width="38.59375" height="24"><div xmlns="http://www.w3.org/1999/xhtml" style="display: table-cell; white-space: nowrap; line-height: 1.5; max-width: 136px; text-align: start;"><span class="nodeLabel"><p>jsonb</p></span></div></foreignObject></g><g class="label attribute-name" transform="translate(-22.1796875, -12)" style=""><foreignObject width="34.3125" height="24"><div xmlns="http://www.w3.org/1999/xhtml" style="display: table-cell; white-space: nowrap; line-height: 1.5; max-width: 132px; text-align: start;"><span class="nodeLabel"><p>body</p></span></div></foreignObject></g><g class="label attribute-keys" transform="translate(94.3515625, -12)" style=""><foreignObject width="0" height="0"><div xmlns="http://www.w3.org/1999/xhtml" style="display: table-cell; white-space: nowrap; line-height: 1.5; max-width: 100px; text-align: start;"><span class="nodeLabel"></span></div></foreignObject></g><g class="label attribute-comment" transform="translate(137.4921875, -12)" style=""><foreignObject width="0" height="0"><div xmlns="http://www.w3.org/1999/xhtml" style="display: table-cell; white-space: nowrap; line-height: 1.5; max-width: 100px; text-align: start;"><span class="nodeLabel"></span></div></foreignObject></g><g class="label attribute-type" transform="translate(-112.4921875, 30.75)" style=""><foreignObject width="40.375" height="24"><div xmlns="http://www.w3.org/1999/xhtml" style="display: table-cell; white-space: nowrap; line-height: 1.5; max-width: 136px; text-align: start;"><span class="nodeLabel"><p>string</p></span></div></foreignObject></g><g class="label attribute-name" transform="translate(-22.1796875, 30.75)" style=""><foreignObject width="42.796875" height="24"><div xmlns="http://www.w3.org/1999/xhtml" style="display: table-cell; white-space: nowrap; line-height: 1.5; max-width: 136px; text-align: start;"><span class="nodeLabel"><p>status</p></span></div></foreignObject></g><g class="label attribute-keys" transform="translate(94.3515625, 30.75)" style=""><foreignObject width="0" height="0"><div xmlns="http://www.w3.org/1999/xhtml" style="display: table-cell; white-space: nowrap; line-height: 1.5; max-width: 100px; text-align: start;"><span class="nodeLabel"></span></div></foreignObject></g><g class="label attribute-comment" transform="translate(137.4921875, 30.75)" style=""><foreignObject width="0" height="0"><div xmlns="http://www.w3.org/1999/xhtml" style="display: table-cell; white-space: nowrap; line-height: 1.5; max-width: 100px; text-align: start;"><span class="nodeLabel"></span></div></foreignObject></g><g class="label attribute-type" transform="translate(-112.4921875, 73.5)" style=""><foreignObject width="19.65625" height="24"><div xmlns="http://www.w3.org/1999/xhtml" style="display: table-cell; white-space: nowrap; line-height: 1.5; max-width: 117px; text-align: start;"><span class="nodeLabel"><p>int</p></span></div></foreignObject></g><g class="label attribute-name" transform="translate(-22.1796875, 73.5)" style=""><foreignObject width="88.84375" height="24"><div xmlns="http://www.w3.org/1999/xhtml" style="display: table-cell; white-space: nowrap; line-height: 1.5; max-width: 183px; text-align: start;"><span class="nodeLabel"><p>lock_version</p></span></div></foreignObject></g><g class="label attribute-keys" transform="translate(94.3515625, 73.5)" style=""><foreignObject width="0" height="0"><div xmlns="http://www.w3.org/1999/xhtml" style="display: table-cell; white-space: nowrap; line-height: 1.5; max-width: 100px; text-align: start;"><span class="nodeLabel"></span></div></foreignObject></g><g class="label attribute-comment" transform="translate(137.4921875, 73.5)" style=""><foreignObject width="0" height="0"><div xmlns="http://www.w3.org/1999/xhtml" style="display: table-cell; white-space: nowrap; line-height: 1.5; max-width: 100px; text-align: start;"><span class="nodeLabel"></span></div></foreignObject></g><g class="label attribute-type" transform="translate(-112.4921875, 116.25)" style=""><foreignObject width="65.3125" height="24"><div xmlns="http://www.w3.org/1999/xhtml" style="display: table-cell; white-space: nowrap; line-height: 1.5; max-width: 155px; text-align: start;"><span class="nodeLabel"><p>datetime</p></span></div></foreignObject></g><g class="label attribute-name" transform="translate(-22.1796875, 116.25)" style=""><foreignObject width="78.40625" height="24"><div xmlns="http://www.w3.org/1999/xhtml" style="display: table-cell; white-space: nowrap; line-height: 1.5; max-width: 166px; text-align: start;"><span class="nodeLabel"><p>created_at</p></span></div></foreignObject></g><g class="label attribute-keys" transform="translate(94.3515625, 116.25)" style=""><foreignObject width="0" height="0"><div xmlns="http://www.w3.org/1999/xhtml" style="display: table-cell; white-space: nowrap; line-height: 1.5; max-width: 100px; text-align: start;"><span class="nodeLabel"></span></div></foreignObject></g><g class="label attribute-comment" transform="translate(137.4921875, 116.25)" style=""><foreignObject width="0" height="0"><div xmlns="http://www.w3.org/1999/xhtml" style="display: table-cell; white-space: nowrap; line-height: 1.5; max-width: 100px; text-align: start;"><span class="nodeLabel"></span></div></foreignObject></g><g class="label attribute-type" transform="translate(-112.4921875, 159)" style=""><foreignObject width="65.3125" height="24"><div xmlns="http://www.w3.org/1999/xhtml" style="display: table-cell; white-space: nowrap; line-height: 1.5; max-width: 155px; text-align: start;"><span class="nodeLabel"><p>datetime</p></span></div></foreignObject></g><g class="label attribute-name" transform="translate(-22.1796875, 159)" style=""><foreignObject width="82.109375" height="24"><div xmlns="http://www.w3.org/1999/xhtml" style="display: table-cell; white-space: nowrap; line-height: 1.5; max-width: 170px; text-align: start;"><span class="nodeLabel"><p>updated_at</p></span></div></foreignObject></g><g class="label attribute-keys" transform="translate(94.3515625, 159)" style=""><foreignObject width="0" height="0"><div xmlns="http://www.w3.org/1999/xhtml" style="display: table-cell; white-space: nowrap; line-height: 1.5; max-width: 100px; text-align: start;"><span class="nodeLabel"></span></div></foreignObject></g><g class="label attribute-comment" transform="translate(137.4921875, 159)" style=""><foreignObject width="0" height="0"><div xmlns="http://www.w3.org/1999/xhtml" style="display: table-cell; white-space: nowrap; line-height: 1.5; max-width: 100px; text-align: start;"><span class="nodeLabel"></span></div></foreignObject></g><g class="divider"><path d="M-124.9921875 -149.62505 L-124.9921875 -149.62495 L124.9921875 -149.62495 L124.9921875 -149.62505" stroke="none" stroke-width="0" fill="#ECECFF" fill-rule="evenodd"/><path d="M-124.9921875 -149.62505 C-124.9921875 -149.62502515685333, -124.9921875 -149.62500031370666, -124.9921875 -149.62495 M-124.9921875 -149.62505 C-124.9921875 -149.62501119398058, -124.9921875 -149.6249723879612, -124.9921875 -149.62495 M-124.9921875 -149.62495 C-51.430026605239874 -149.62495, 22.132134289520252 -149.62495, 124.9921875 -149.62495 M-124.9921875 -149.62495 C-67.76990736034793 -149.62495, -10.547627220695858 -149.62495, 124.9921875 -149.62495 M124.9921875 -149.62495 C124.9921875 -149.62497314107594, 124.9921875 -149.62499628215187, 124.9921875 -149.62505 M124.9921875 -149.62495 C124.9921875 -149.62497497001522, 124.9921875 -149.6249999400304, 124.9921875 -149.62505 M124.9921875 -149.62505 C64.92386689094218 -149.62505, 4.855546281884372 -149.62505, -124.9921875 -149.62505 M124.9921875 -149.62505 C63.323522768580645 -149.62505, 1.65485803716129 -149.62505, -124.9921875 -149.62505" stroke="#9370DB" stroke-width="1.3" fill="none" stroke-dasharray="0 0"/></g><g class="divider"><path d="M-34.6797375 -149.625 L-34.6796375 -149.625 L-34.6796375 192.375 L-34.6797375 192.375" stroke="none" stroke-width="0" fill="#ECECFF" fill-rule="evenodd"/><path d="M-34.6797375 -149.625 C-34.679703750443046 -149.625, -34.6796700008861 -149.625, -34.6796375 -149.625 M-34.6797375 -149.625 C-34.67970610872942 -149.625, -34.67967471745884 -149.625, -34.6796375 -149.625 M-34.6796375 -149.625 C-34.6796375 -38.73937737271396, -34.6796375 72.14624525457208, -34.6796375 192.375 M-34.6796375 -149.625 C-34.6796375 -20.06407343333518, -34.6796375 109.49685313332964, -34.6796375 192.375 M-34.6796375 192.375 C-34.67967311860761 192.375, -34.67970873721523 192.375, -34.6797375 192.375 M-34.6796375 192.375 C-34.679662599522516 192.375, -34.67968769904504 192.375, -34.6797375 192.375 M-34.6797375 192.375 C-34.6797375 116.5177158015417, -34.6797375 40.660431603083396, -34.6797375 -149.625 M-34.6797375 192.375 C-34.6797375 92.49121777203672, -34.6797375 -7.392564455926561, -34.6797375 -149.625" stroke="#9370DB" stroke-width="1.3" fill="none" stroke-dasharray="0 0"/></g><g class="divider"><path d="M81.8515125 -149.625 L81.8516125 -149.625 L81.8516125 192.375 L81.8515125 192.375" stroke="none" stroke-width="0" fill="#ECECFF" fill-rule="evenodd"/><path d="M81.8515125 -149.625 C81.85154518781304 -149.625, 81.85157787562609 -149.625, 81.8516125 -149.625 M81.8515125 -149.625 C81.85153687339937 -149.625, 81.85156124679872 -149.625, 81.8516125 -149.625 M81.8516125 -149.625 C81.8516125 -14.58039706884827, 81.8516125 120.46420586230346, 81.8516125 192.375 M81.8516125 -149.625 C81.8516125 -60.530095180092985, 81.8516125 28.56480963981403, 81.8516125 192.375 M81.8516125 192.375 C81.85157880794657 192.375, 81.85154511589315 192.375, 81.8515125 192.375 M81.8516125 192.375 C81.85158151583367 192.375, 81.85155053166733 192.375, 81.8515125 192.375 M81.8515125 192.375 C81.8515125 60.057199368984215, 81.8515125 -72.26060126203157, 81.8515125 -149.625 M81.8515125 192.375 C81.8515125 65.65399354112999, 81.8515125 -61.067012917740016, 81.8515125 -149.625" stroke="#9370DB" stroke-width="1.3" fill="none" stroke-dasharray="0 0"/></g><g class="divider"><path d="M-124.9921875 -149.62505 L-124.9921875 -149.62495 L124.9921875 -149.62495 L124.9921875 -149.62505" stroke="none" stroke-width="0" fill="#ECECFF" fill-rule="evenodd"/><path d="M-124.9921875 -149.62505 C-124.9921875 -149.6250131316737, -124.9921875 -149.6249762633474, -124.9921875 -149.62495 M-124.9921875 -149.62505 C-124.9921875 -149.625015307461, -124.9921875 -149.62498061492207, -124.9921875 -149.62495 M-124.9921875 -149.62495 C-27.93915427679262 -149.62495, 69.11387894641476 -149.62495, 124.9921875 -149.62495 M-124.9921875 -149.62495 C-73.16990646860378 -149.62495, -21.34762543720757 -149.62495, 124.9921875 -149.62495 M124.9921875 -149.62495 C124.9921875 -149.62497538440152, 124.9921875 -149.62500076880303, 124.9921875 -149.62505 M124.9921875 -149.62495 C124.9921875 -149.62498617789424, 124.9921875 -149.62502235578847, 124.9921875 -149.62505 M124.9921875 -149.62505 C49.48748689124358 -149.62505, -26.017213717512846 -149.62505, -124.9921875 -149.62505 M124.9921875 -149.62505 C65.26041401244618 -149.62505, 5.528640524892353 -149.62505, -124.9921875 -149.62505" stroke="#9370DB" stroke-width="1.3" fill="none" stroke-dasharray="0 0"/></g></g><g class="node default" id="my-svg-entity-entries-2" data-look="classic" transform="translate(548.81640625, 686.125)"><g class="outer-path" style=""><path d="M-149.6640625 -235.125 L149.6640625 -235.125 L149.6640625 235.125 L-149.6640625 235.125" stroke="none" stroke-width="0" fill="#ECECFF"/><path d="M-149.6640625 -235.125 C-40.258889064244 -235.125, 69.146284371512 -235.125, 149.6640625 -235.125 M-149.6640625 -235.125 C-89.31988224016054 -235.125, -28.975701980321077 -235.125, 149.6640625 -235.125 M149.6640625 -235.125 C149.6640625 -134.7879871393064, 149.6640625 -34.45097427861282, 149.6640625 235.125 M149.6640625 -235.125 C149.6640625 -119.68681714500613, 149.6640625 -4.248634290012262, 149.6640625 235.125 M149.6640625 235.125 C48.64351529711794 235.125, -52.37703190576411 235.125, -149.6640625 235.125 M149.6640625 235.125 C56.69238949636464 235.125, -36.27928350727072 235.125, -149.6640625 235.125 M-149.6640625 235.125 C-149.6640625 115.63203043424228, -149.6640625 -3.860939131515437, -149.6640625 -235.125 M-149.6640625 235.125 C-149.6640625 65.76047283487307, -149.6640625 -103.60405433025386, -149.6640625 -235.125" stroke="#9370DB" stroke-width="1.3" fill="none" stroke-dasharray="0 0"/></g><g style="" class="row-rect-odd"><path d="M-149.6640625 -192.375 L149.6640625 -192.375 L149.6640625 -149.625 L-149.6640625 -149.625" stroke="none" stroke-width="0" fill="hsl(240, 100%, 100%)"/><path d="M-149.6640625 -192.375 C-63.52050620360221 -192.375, 22.62305009279558 -192.375, 149.6640625 -192.375 M-149.6640625 -192.375 C-41.563025250059795 -192.375, 66.53801199988041 -192.375, 149.6640625 -192.375 M149.6640625 -192.375 C149.6640625 -180.01536791748094, 149.6640625 -167.6557358349619, 149.6640625 -149.625 M149.6640625 -192.375 C149.6640625 -179.18997870623306, 149.6640625 -166.00495741246613, 149.6640625 -149.625 M149.6640625 -149.625 C58.89569854546684 -149.625, -31.872665409066315 -149.625, -149.6640625 -149.625 M149.6640625 -149.625 C64.62360869078641 -149.625, -20.416845118427176 -149.625, -149.6640625 -149.625 M-149.6640625 -149.625 C-149.6640625 -165.7991141499678, -149.6640625 -181.97322829993558, -149.6640625 -192.375 M-149.6640625 -149.625 C-149.6640625 -164.76773991444662, -149.6640625 -179.91047982889327, -149.6640625 -192.375" stroke="#9370DB" stroke-width="1.3" fill="none" stroke-dasharray="0 0"/></g><g style="" class="row-rect-even"><path d="M-149.6640625 -149.625 L149.6640625 -149.625 L149.6640625 -106.875 L-149.6640625 -106.875" stroke="none" stroke-width="0" fill="hsl(240, 100%, 97.2745098039%)"/><path d="M-149.6640625 -149.625 C-80.42104648783574 -149.625, -11.178030475671477 -149.625, 149.6640625 -149.625 M-149.6640625 -149.625 C-86.91196837467865 -149.625, -24.159874249357316 -149.625, 149.6640625 -149.625 M149.6640625 -149.625 C149.6640625 -140.0724559977299, 149.6640625 -130.51991199545978, 149.6640625 -106.875 M149.6640625 -149.625 C149.6640625 -137.2765843626318, 149.6640625 -124.92816872526362, 149.6640625 -106.875 M149.6640625 -106.875 C54.92990468414422 -106.875, -39.80425313171156 -106.875, -149.6640625 -106.875 M149.6640625 -106.875 C65.82804888858067 -106.875, -18.007964722838665 -106.875, -149.6640625 -106.875 M-149.6640625 -106.875 C-149.6640625 -120.62478696734162, -149.6640625 -134.37457393468324, -149.6640625 -149.625 M-149.6640625 -106.875 C-149.6640625 -122.50919052936229, -149.6640625 -138.14338105872457, -149.6640625 -149.625" stroke="#9370DB" stroke-width="1.3" fill="none" stroke-dasharray="0 0"/></g><g style="" class="row-rect-odd"><path d="M-149.6640625 -106.875 L149.6640625 -106.875 L149.6640625 -64.125 L-149.6640625 -64.125" stroke="none" stroke-width="0" fill="hsl(240, 100%, 100%)"/><path d="M-149.6640625 -106.875 C-59.7052391075967 -106.875, 30.253584284806607 -106.875, 149.6640625 -106.875 M-149.6640625 -106.875 C-44.82794698157156 -106.875, 60.008168536856886 -106.875, 149.6640625 -106.875 M149.6640625 -106.875 C149.6640625 -94.00011365301448, 149.6640625 -81.12522730602895, 149.6640625 -64.125 M149.6640625 -106.875 C149.6640625 -90.41170035304654, 149.6640625 -73.94840070609308, 149.6640625 -64.125 M149.6640625 -64.125 C33.3388324869147 -64.125, -82.9863975261706 -64.125, -149.6640625 -64.125 M149.6640625 -64.125 C36.27412955170344 -64.125, -77.11580339659312 -64.125, -149.6640625 -64.125 M-149.6640625 -64.125 C-149.6640625 -80.1964298518667, -149.6640625 -96.26785970373338, -149.6640625 -106.875 M-149.6640625 -64.125 C-149.6640625 -76.31756695557851, -149.6640625 -88.51013391115704, -149.6640625 -106.875" stroke="#9370DB" stroke-width="1.3" fill="none" stroke-dasharray="0 0"/></g><g style="" class="row-rect-even"><path d="M-149.6640625 -64.125 L149.6640625 -64.125 L149.6640625 -21.375 L-149.6640625 -21.375" stroke="none" stroke-width="0" fill="hsl(240, 100%, 97.2745098039%)"/><path d="M-149.6640625 -64.125 C-54.939582389039714 -64.125, 39.78489772192057 -64.125, 149.6640625 -64.125 M-149.6640625 -64.125 C-78.56928038949805 -64.125, -7.474498278996094 -64.125, 149.6640625 -64.125 M149.6640625 -64.125 C149.6640625 -53.141867803932556, 149.6640625 -42.15873560786511, 149.6640625 -21.375 M149.6640625 -64.125 C149.6640625 -50.87385406068878, 149.6640625 -37.622708121377556, 149.6640625 -21.375 M149.6640625 -21.375 C33.07693939125821 -21.375, -83.51018371748359 -21.375, -149.6640625 -21.375 M149.6640625 -21.375 C78.95978627343618 -21.375, 8.25551004687236 -21.375, -149.6640625 -21.375 M-149.6640625 -21.375 C-149.6640625 -35.578806229764425, -149.6640625 -49.78261245952885, -149.6640625 -64.125 M-149.6640625 -21.375 C-149.6640625 -33.9626543845129, -149.6640625 -46.550308769025804, -149.6640625 -64.125" stroke="#9370DB" stroke-width="1.3" fill="none" stroke-dasharray="0 0"/></g><g style="" class="row-rect-odd"><path d="M-149.6640625 -21.375 L149.6640625 -21.375 L149.6640625 21.375 L-149.6640625 21.375" stroke="none" stroke-width="0" fill="hsl(240, 100%, 100%)"/><path d="M-149.6640625 -21.375 C-49.28456369793345 -21.375, 51.0949351041331 -21.375, 149.6640625 -21.375 M-149.6640625 -21.375 C-73.84388436028689 -21.375, 1.9762937794262143 -21.375, 149.6640625 -21.375 M149.6640625 -21.375 C149.6640625 -7.610908576930344, 149.6640625 6.1531828461393125, 149.6640625 21.375 M149.6640625 -21.375 C149.6640625 -9.686667691416584, 149.6640625 2.0016646171668313, 149.6640625 21.375 M149.6640625 21.375 C42.12387601903369 21.375, -65.41631046193262 21.375, -149.6640625 21.375 M149.6640625 21.375 C56.08784013303469 21.375, -37.48838223393062 21.375, -149.6640625 21.375 M-149.6640625 21.375 C-149.6640625 6.215355644562214, -149.6640625 -8.944288710875572, -149.6640625 -21.375 M-149.6640625 21.375 C-149.6640625 12.38521877208627, -149.6640625 3.395437544172541, -149.6640625 -21.375" stroke="#9370DB" stroke-width="1.3" fill="none" stroke-dasharray="0 0"/></g><g style="" class="row-rect-even"><path d="M-149.6640625 21.375 L149.6640625 21.375 L149.6640625 64.125 L-149.6640625 64.125" stroke="none" stroke-width="0" fill="hsl(240, 100%, 97.2745098039%)"/><path d="M-149.6640625 21.375 C-60.90413208305263 21.375, 27.85579833389474 21.375, 149.6640625 21.375 M-149.6640625 21.375 C-50.676983782357524 21.375, 48.31009493528495 21.375, 149.6640625 21.375 M149.6640625 21.375 C149.6640625 36.47288867676635, 149.6640625 51.570777353532705, 149.6640625 64.125 M149.6640625 21.375 C149.6640625 35.38697835889521, 149.6640625 49.398956717790426, 149.6640625 64.125 M149.6640625 64.125 C36.760886819205126 64.125, -76.14228886158975 64.125, -149.6640625 64.125 M149.6640625 64.125 C56.24044327135675 64.125, -37.183175957286494 64.125, -149.6640625 64.125 M-149.6640625 64.125 C-149.6640625 49.48458980711638, -149.6640625 34.84417961423276, -149.6640625 21.375 M-149.6640625 64.125 C-149.6640625 51.49112034866502, -149.6640625 38.85724069733005, -149.6640625 21.375" stroke="#9370DB" stroke-width="1.3" fill="none" stroke-dasharray="0 0"/></g><g style="" class="row-rect-odd"><path d="M-149.6640625 64.125 L149.6640625 64.125 L149.6640625 106.875 L-149.6640625 106.875" stroke="none" stroke-width="0" fill="hsl(240, 100%, 100%)"/><path d="M-149.6640625 64.125 C-57.93713163646072 64.125, 33.78979922707856 64.125, 149.6640625 64.125 M-149.6640625 64.125 C-65.36220985587553 64.125, 18.939642788248932 64.125, 149.6640625 64.125 M149.6640625 64.125 C149.6640625 80.23721162492009, 149.6640625 96.34942324984019, 149.6640625 106.875 M149.6640625 64.125 C149.6640625 78.24329758355215, 149.6640625 92.3615951671043, 149.6640625 106.875 M149.6640625 106.875 C76.2416946094615 106.875, 2.8193267189230085 106.875, -149.6640625 106.875 M149.6640625 106.875 C61.61435702045196 106.875, -26.435348459096076 106.875, -149.6640625 106.875 M-149.6640625 106.875 C-149.6640625 97.37169731835708, -149.6640625 87.86839463671414, -149.6640625 64.125 M-149.6640625 106.875 C-149.6640625 93.44035254761107, -149.6640625 80.00570509522213, -149.6640625 64.125" stroke="#9370DB" stroke-width="1.3" fill="none" stroke-dasharray="0 0"/></g><g style="" class="row-rect-even"><path d="M-149.6640625 106.875 L149.6640625 106.875 L149.6640625 149.625 L-149.6640625 149.625" stroke="none" stroke-width="0" fill="hsl(240, 100%, 97.2745098039%)"/><path d="M-149.6640625 106.875 C-41.55695220938817 106.875, 66.55015808122366 106.875, 149.6640625 106.875 M-149.6640625 106.875 C-46.97984296537756 106.875, 55.704376569244886 106.875, 149.6640625 106.875 M149.6640625 106.875 C149.6640625 120.50099347418151, 149.6640625 134.12698694836303, 149.6640625 149.625 M149.6640625 106.875 C149.6640625 122.25957002237203, 149.6640625 137.64414004474406, 149.6640625 149.625 M149.6640625 149.625 C47.37437705424762 149.625, -54.915308391504766 149.625, -149.6640625 149.625 M149.6640625 149.625 C85.27598248970637 149.625, 20.88790247941273 149.625, -149.6640625 149.625 M-149.6640625 149.625 C-149.6640625 132.82721120596375, -149.6640625 116.0294224119275, -149.6640625 106.875 M-149.6640625 149.625 C-149.6640625 136.54898145152674, -149.6640625 123.47296290305349, -149.6640625 106.875" stroke="#9370DB" stroke-width="1.3" fill="none" stroke-dasharray="0 0"/></g><g style="" class="row-rect-odd"><path d="M-149.6640625 149.625 L149.6640625 149.625 L149.6640625 192.375 L-149.6640625 192.375" stroke="none" stroke-width="0" fill="hsl(240, 100%, 100%)"/><path d="M-149.6640625 149.625 C-81.9441706604843 149.625, -14.224278820968607 149.625, 149.6640625 149.625 M-149.6640625 149.625 C-64.86556928780162 149.625, 19.93292392439676 149.625, 149.6640625 149.625 M149.6640625 149.625 C149.6640625 161.77916931000897, 149.6640625 173.93333862001793, 149.6640625 192.375 M149.6640625 149.625 C149.6640625 164.0430227123316, 149.6640625 178.46104542466318, 149.6640625 192.375 M149.6640625 192.375 C31.29890945836472 192.375, -87.06624358327056 192.375, -149.6640625 192.375 M149.6640625 192.375 C74.43969761941777 192.375, -0.7846672611644578 192.375, -149.6640625 192.375 M-149.6640625 192.375 C-149.6640625 176.86730305198037, -149.6640625 161.35960610396074, -149.6640625 149.625 M-149.6640625 192.375 C-149.6640625 183.07096274386652, -149.6640625 173.76692548773303, -149.6640625 149.625" stroke="#9370DB" stroke-width="1.3" fill="none" stroke-dasharray="0 0"/></g><g style="" class="row-rect-even"><path d="M-149.6640625 192.375 L149.6640625 192.375 L149.6640625 235.125 L-149.6640625 235.125" stroke="none" stroke-width="0" fill="hsl(240, 100%, 97.2745098039%)"/><path d="M-149.6640625 192.375 C-62.33061657575884 192.375, 25.002829348482322 192.375, 149.6640625 192.375 M-149.6640625 192.375 C-40.57393667715911 192.375, 68.51618914568178 192.375, 149.6640625 192.375 M149.6640625 192.375 C149.6640625 201.89576155143462, 149.6640625 211.4165231028692, 149.6640625 235.125 M149.6640625 192.375 C149.6640625 208.88459526146514, 149.6640625 225.39419052293027, 149.6640625 235.125 M149.6640625 235.125 C74.51090829412306 235.125, -0.6422459117538892 235.125, -149.6640625 235.125 M149.6640625 235.125 C56.93539941147017 235.125, -35.793263677059656 235.125, -149.6640625 235.125 M-149.6640625 235.125 C-149.6640625 218.09396631578255, -149.6640625 201.0629326315651, -149.6640625 192.375 M-149.6640625 235.125 C-149.6640625 222.47550698779548, -149.6640625 209.82601397559097, -149.6640625 192.375" stroke="#9370DB" stroke-width="1.3" fill="none" stroke-dasharray="0 0"/></g><g class="label name" transform="translate(-24.8984375, -225.75)" style=""><foreignObject width="49.796875" height="24"><div xmlns="http://www.w3.org/1999/xhtml" style="display: table-cell; white-space: nowrap; line-height: 1.5; max-width: 143px; text-align: start;"><span class="nodeLabel"><p>entries</p></span></div></foreignObject></g><g class="label attribute-type" transform="translate(-137.1640625, -183)" style=""><foreignObject width="30.96875" height="24"><div xmlns="http://www.w3.org/1999/xhtml" style="display: table-cell; white-space: nowrap; line-height: 1.5; max-width: 128px; text-align: start;"><span class="nodeLabel"><p>uuid</p></span></div></foreignObject></g><g class="label attribute-name" transform="translate(-46.8515625, -183)" style=""><foreignObject width="13.484375" height="24"><div xmlns="http://www.w3.org/1999/xhtml" style="display: table-cell; white-space: nowrap; line-height: 1.5; max-width: 112px; text-align: start;"><span class="nodeLabel"><p>id</p></span></div></foreignObject></g><g class="label attribute-keys" transform="translate(119.0234375, -183)" style=""><foreignObject width="18.140625" height="24"><div xmlns="http://www.w3.org/1999/xhtml" style="display: table-cell; white-space: nowrap; line-height: 1.5; max-width: 121px; text-align: start;"><span class="nodeLabel"><p>PK</p></span></div></foreignObject></g><g class="label attribute-comment" transform="translate(162.1640625, -183)" style=""><foreignObject width="0" height="0"><div xmlns="http://www.w3.org/1999/xhtml" style="display: table-cell; white-space: nowrap; line-height: 1.5; max-width: 100px; text-align: start;"><span class="nodeLabel"></span></div></foreignObject></g><g class="label attribute-type" transform="translate(-137.1640625, -140.25)" style=""><foreignObject width="30.96875" height="24"><div xmlns="http://www.w3.org/1999/xhtml" style="display: table-cell; white-space: nowrap; line-height: 1.5; max-width: 128px; text-align: start;"><span class="nodeLabel"><p>uuid</p></span></div></foreignObject></g><g class="label attribute-name" transform="translate(-46.8515625, -140.25)" style=""><foreignObject width="91.53125" height="24"><div xmlns="http://www.w3.org/1999/xhtml" style="display: table-cell; white-space: nowrap; line-height: 1.5; max-width: 183px; text-align: start;"><span class="nodeLabel"><p>definition_id</p></span></div></foreignObject></g><g class="label attribute-keys" transform="translate(119.0234375, -140.25)" style=""><foreignObject width="17.609375" height="24"><div xmlns="http://www.w3.org/1999/xhtml" style="display: table-cell; white-space: nowrap; line-height: 1.5; max-width: 121px; text-align: start;"><span class="nodeLabel"><p>FK</p></span></div></foreignObject></g><g class="label attribute-comment" transform="translate(162.1640625, -140.25)" style=""><foreignObject width="0" height="0"><div xmlns="http://www.w3.org/1999/xhtml" style="display: table-cell; white-space: nowrap; line-height: 1.5; max-width: 100px; text-align: start;"><span class="nodeLabel"></span></div></foreignObject></g><g class="label attribute-type" transform="translate(-137.1640625, -97.5)" style=""><foreignObject width="19.65625" height="24"><div xmlns="http://www.w3.org/1999/xhtml" style="display: table-cell; white-space: nowrap; line-height: 1.5; max-width: 117px; text-align: start;"><span class="nodeLabel"><p>int</p></span></div></foreignObject></g><g class="label attribute-name" transform="translate(-46.8515625, -97.5)" style=""><foreignObject width="129.203125" height="24"><div xmlns="http://www.w3.org/1999/xhtml" style="display: table-cell; white-space: nowrap; line-height: 1.5; max-width: 217px; text-align: start;"><span class="nodeLabel"><p>definition_version</p></span></div></foreignObject></g><g class="label attribute-keys" transform="translate(119.0234375, -97.5)" style=""><foreignObject width="0" height="0"><div xmlns="http://www.w3.org/1999/xhtml" style="display: table-cell; white-space: nowrap; line-height: 1.5; max-width: 100px; text-align: start;"><span class="nodeLabel"></span></div></foreignObject></g><g class="label attribute-comment" transform="translate(162.1640625, -97.5)" style=""><foreignObject width="0" height="0"><div xmlns="http://www.w3.org/1999/xhtml" style="display: table-cell; white-space: nowrap; line-height: 1.5; max-width: 100px; text-align: start;"><span class="nodeLabel"></span></div></foreignObject></g><g class="label attribute-type" transform="translate(-137.1640625, -54.75)" style=""><foreignObject width="40.375" height="24"><div xmlns="http://www.w3.org/1999/xhtml" style="display: table-cell; white-space: nowrap; line-height: 1.5; max-width: 136px; text-align: start;"><span class="nodeLabel"><p>string</p></span></div></foreignObject></g><g class="label attribute-name" transform="translate(-46.8515625, -54.75)" style=""><foreignObject width="79.609375" height="24"><div xmlns="http://www.w3.org/1999/xhtml" style="display: table-cell; white-space: nowrap; line-height: 1.5; max-width: 170px; text-align: start;"><span class="nodeLabel"><p>namespace</p></span></div></foreignObject></g><g class="label attribute-keys" transform="translate(119.0234375, -54.75)" style=""><foreignObject width="0" height="0"><div xmlns="http://www.w3.org/1999/xhtml" style="display: table-cell; white-space: nowrap; line-height: 1.5; max-width: 100px; text-align: start;"><span class="nodeLabel"></span></div></foreignObject></g><g class="label attribute-comment" transform="translate(162.1640625, -54.75)" style=""><foreignObject width="0" height="0"><div xmlns="http://www.w3.org/1999/xhtml" style="display: table-cell; white-space: nowrap; line-height: 1.5; max-width: 100px; text-align: start;"><span class="nodeLabel"></span></div></foreignObject></g><g class="label attribute-type" transform="translate(-137.1640625, -12)" style=""><foreignObject width="40.375" height="24"><div xmlns="http://www.w3.org/1999/xhtml" style="display: table-cell; white-space: nowrap; line-height: 1.5; max-width: 136px; text-align: start;"><span class="nodeLabel"><p>string</p></span></div></foreignObject></g><g class="label attribute-name" transform="translate(-46.8515625, -12)" style=""><foreignObject width="30.703125" height="24"><div xmlns="http://www.w3.org/1999/xhtml" style="display: table-cell; white-space: nowrap; line-height: 1.5; max-width: 125px; text-align: start;"><span class="nodeLabel"><p>title</p></span></div></foreignObject></g><g class="label attribute-keys" transform="translate(119.0234375, -12)" style=""><foreignObject width="0" height="0"><div xmlns="http://www.w3.org/1999/xhtml" style="display: table-cell; white-space: nowrap; line-height: 1.5; max-width: 100px; text-align: start;"><span class="nodeLabel"></span></div></foreignObject></g><g class="label attribute-comment" transform="translate(162.1640625, -12)" style=""><foreignObject width="0" height="0"><div xmlns="http://www.w3.org/1999/xhtml" style="display: table-cell; white-space: nowrap; line-height: 1.5; max-width: 100px; text-align: start;"><span class="nodeLabel"></span></div></foreignObject></g><g class="label attribute-type" transform="translate(-137.1640625, 30.75)" style=""><foreignObject width="38.59375" height="24"><div xmlns="http://www.w3.org/1999/xhtml" style="display: table-cell; white-space: nowrap; line-height: 1.5; max-width: 136px; text-align: start;"><span class="nodeLabel"><p>jsonb</p></span></div></foreignObject></g><g class="label attribute-name" transform="translate(-46.8515625, 30.75)" style=""><foreignObject width="32.078125" height="24"><div xmlns="http://www.w3.org/1999/xhtml" style="display: table-cell; white-space: nowrap; line-height: 1.5; max-width: 127px; text-align: start;"><span class="nodeLabel"><p>data</p></span></div></foreignObject></g><g class="label attribute-keys" transform="translate(119.0234375, 30.75)" style=""><foreignObject width="0" height="0"><div xmlns="http://www.w3.org/1999/xhtml" style="display: table-cell; white-space: nowrap; line-height: 1.5; max-width: 100px; text-align: start;"><span class="nodeLabel"></span></div></foreignObject></g><g class="label attribute-comment" transform="translate(162.1640625, 30.75)" style=""><foreignObject width="0" height="0"><div xmlns="http://www.w3.org/1999/xhtml" style="display: table-cell; white-space: nowrap; line-height: 1.5; max-width: 100px; text-align: start;"><span class="nodeLabel"></span></div></foreignObject></g><g class="label attribute-type" transform="translate(-137.1640625, 73.5)" style=""><foreignObject width="30.96875" height="24"><div xmlns="http://www.w3.org/1999/xhtml" style="display: table-cell; white-space: nowrap; line-height: 1.5; max-width: 128px; text-align: start;"><span class="nodeLabel"><p>uuid</p></span></div></foreignObject></g><g class="label attribute-name" transform="translate(-46.8515625, 73.5)" style=""><foreignObject width="140.875" height="24"><div xmlns="http://www.w3.org/1999/xhtml" style="display: table-cell; white-space: nowrap; line-height: 1.5; max-width: 225px; text-align: start;"><span class="nodeLabel"><p>created_by_user_id</p></span></div></foreignObject></g><g class="label attribute-keys" transform="translate(119.0234375, 73.5)" style=""><foreignObject width="17.609375" height="24"><div xmlns="http://www.w3.org/1999/xhtml" style="display: table-cell; white-space: nowrap; line-height: 1.5; max-width: 121px; text-align: start;"><span class="nodeLabel"><p>FK</p></span></div></foreignObject></g><g class="label attribute-comment" transform="translate(162.1640625, 73.5)" style=""><foreignObject width="0" height="0"><div xmlns="http://www.w3.org/1999/xhtml" style="display: table-cell; white-space: nowrap; line-height: 1.5; max-width: 100px; text-align: start;"><span class="nodeLabel"></span></div></foreignObject></g><g class="label attribute-type" transform="translate(-137.1640625, 116.25)" style=""><foreignObject width="19.65625" height="24"><div xmlns="http://www.w3.org/1999/xhtml" style="display: table-cell; white-space: nowrap; line-height: 1.5; max-width: 117px; text-align: start;"><span class="nodeLabel"><p>int</p></span></div></foreignObject></g><g class="label attribute-name" transform="translate(-46.8515625, 116.25)" style=""><foreignObject width="88.84375" height="24"><div xmlns="http://www.w3.org/1999/xhtml" style="display: table-cell; white-space: nowrap; line-height: 1.5; max-width: 183px; text-align: start;"><span class="nodeLabel"><p>lock_version</p></span></div></foreignObject></g><g class="label attribute-keys" transform="translate(119.0234375, 116.25)" style=""><foreignObject width="0" height="0"><div xmlns="http://www.w3.org/1999/xhtml" style="display: table-cell; white-space: nowrap; line-height: 1.5; max-width: 100px; text-align: start;"><span class="nodeLabel"></span></div></foreignObject></g><g class="label attribute-comment" transform="translate(162.1640625, 116.25)" style=""><foreignObject width="0" height="0"><div xmlns="http://www.w3.org/1999/xhtml" style="display: table-cell; white-space: nowrap; line-height: 1.5; max-width: 100px; text-align: start;"><span class="nodeLabel"></span></div></foreignObject></g><g class="label attribute-type" transform="translate(-137.1640625, 159)" style=""><foreignObject width="65.3125" height="24"><div xmlns="http://www.w3.org/1999/xhtml" style="display: table-cell; white-space: nowrap; line-height: 1.5; max-width: 155px; text-align: start;"><span class="nodeLabel"><p>datetime</p></span></div></foreignObject></g><g class="label attribute-name" transform="translate(-46.8515625, 159)" style=""><foreignObject width="78.40625" height="24"><div xmlns="http://www.w3.org/1999/xhtml" style="display: table-cell; white-space: nowrap; line-height: 1.5; max-width: 166px; text-align: start;"><span class="nodeLabel"><p>created_at</p></span></div></foreignObject></g><g class="label attribute-keys" transform="translate(119.0234375, 159)" style=""><foreignObject width="0" height="0"><div xmlns="http://www.w3.org/1999/xhtml" style="display: table-cell; white-space: nowrap; line-height: 1.5; max-width: 100px; text-align: start;"><span class="nodeLabel"></span></div></foreignObject></g><g class="label attribute-comment" transform="translate(162.1640625, 159)" style=""><foreignObject width="0" height="0"><div xmlns="http://www.w3.org/1999/xhtml" style="display: table-cell; white-space: nowrap; line-height: 1.5; max-width: 100px; text-align: start;"><span class="nodeLabel"></span></div></foreignObject></g><g class="label attribute-type" transform="translate(-137.1640625, 201.75)" style=""><foreignObject width="65.3125" height="24"><div xmlns="http://www.w3.org/1999/xhtml" style="display: table-cell; white-space: nowrap; line-height: 1.5; max-width: 155px; text-align: start;"><span class="nodeLabel"><p>datetime</p></span></div></foreignObject></g><g class="label attribute-name" transform="translate(-46.8515625, 201.75)" style=""><foreignObject width="82.109375" height="24"><div xmlns="http://www.w3.org/1999/xhtml" style="display: table-cell; white-space: nowrap; line-height: 1.5; max-width: 170px; text-align: start;"><span class="nodeLabel"><p>updated_at</p></span></div></foreignObject></g><g class="label attribute-keys" transform="translate(119.0234375, 201.75)" style=""><foreignObject width="0" height="0"><div xmlns="http://www.w3.org/1999/xhtml" style="display: table-cell; white-space: nowrap; line-height: 1.5; max-width: 100px; text-align: start;"><span class="nodeLabel"></span></div></foreignObject></g><g class="label attribute-comment" transform="translate(162.1640625, 201.75)" style=""><foreignObject width="0" height="0"><div xmlns="http://www.w3.org/1999/xhtml" style="display: table-cell; white-space: nowrap; line-height: 1.5; max-width: 100px; text-align: start;"><span class="nodeLabel"></span></div></foreignObject></g><g class="divider"><path d="M-149.6640625 -192.37505 L-149.6640625 -192.37495 L149.6640625 -192.37495 L149.6640625 -192.37505" stroke="none" stroke-width="0" fill="#ECECFF" fill-rule="evenodd"/><path d="M-149.6640625 -192.37505 C-149.6640625 -192.3750214460286, -149.6640625 -192.3749928920572, -149.6640625 -192.37495 M-149.6640625 -192.37505 C-149.6640625 -192.37501998339783, -149.6640625 -192.3749899667957, -149.6640625 -192.37495 M-149.6640625 -192.37495 C-58.69472007238197 -192.37495, 32.27462235523606 -192.37495, 149.6640625 -192.37495 M-149.6640625 -192.37495 C-43.44933933285381 -192.37495, 62.76538383429238 -192.37495, 149.6640625 -192.37495 M149.6640625 -192.37495 C149.6640625 -192.3749862889662, 149.6640625 -192.3750225779324, 149.6640625 -192.37505 M149.6640625 -192.37495 C149.6640625 -192.3749719175609, 149.6640625 -192.37499383512184, 149.6640625 -192.37505 M149.6640625 -192.37505 C55.31767224882135 -192.37505, -39.028718002357294 -192.37505, -149.6640625 -192.37505 M149.6640625 -192.37505 C56.38992279165659 -192.37505, -36.884216916686825 -192.37505, -149.6640625 -192.37505" stroke="#9370DB" stroke-width="1.3" fill="none" stroke-dasharray="0 0"/></g><g class="divider"><path d="M-59.3516125 -192.375 L-59.3515125 -192.375 L-59.3515125 235.125 L-59.3516125 235.125" stroke="none" stroke-width="0" fill="#ECECFF" fill-rule="evenodd"/><path d="M-59.3516125 -192.375 C-59.35157267967598 -192.375, -59.35153285935196 -192.375, -59.3515125 -192.375 M-59.3516125 -192.375 C-59.35158005955425 -192.375, -59.3515476191085 -192.375, -59.3515125 -192.375 M-59.3515125 -192.375 C-59.3515125 -50.45771611042733, -59.3515125 91.45956777914535, -59.3515125 235.125 M-59.3515125 -192.375 C-59.3515125 -69.63065833379505, -59.3515125 53.11368333240989, -59.3515125 235.125 M-59.3515125 235.125 C-59.351534523648304 235.125, -59.3515565472966 235.125, -59.3516125 235.125 M-59.3515125 235.125 C-59.35155021396351 235.125, -59.35158792792703 235.125, -59.3516125 235.125 M-59.3516125 235.125 C-59.3516125 137.28902494780084, -59.3516125 39.45304989560168, -59.3516125 -192.375 M-59.3516125 235.125 C-59.3516125 134.50005416895834, -59.3516125 33.875108337916686, -59.3516125 -192.375" stroke="#9370DB" stroke-width="1.3" fill="none" stroke-dasharray="0 0"/></g><g class="divider"><path d="M106.5233875 -192.375 L106.5234875 -192.375 L106.5234875 235.125 L106.5233875 235.125" stroke="none" stroke-width="0" fill="#ECECFF" fill-rule="evenodd"/><path d="M106.5233875 -192.375 C106.52341679566072 -192.375, 106.52344609132146 -192.375, 106.5234875 -192.375 M106.5233875 -192.375 C106.52341802503422 -192.375, 106.52344855006844 -192.375, 106.5234875 -192.375 M106.5234875 -192.375 C106.5234875 -102.84515951809493, 106.5234875 -13.315319036189862, 106.5234875 235.125 M106.5234875 -192.375 C106.5234875 -95.88126521721912, 106.5234875 0.6124695655617529, 106.5234875 235.125 M106.5234875 235.125 C106.52345647119219 235.125, 106.52342544238438 235.125, 106.5233875 235.125 M106.5234875 235.125 C106.52346598654609 235.125, 106.52344447309217 235.125, 106.5233875 235.125 M106.5233875 235.125 C106.5233875 68.79738616692387, 106.5233875 -97.53022766615226, 106.5233875 -192.375 M106.5233875 235.125 C106.5233875 65.26053605879935, 106.5233875 -104.60392788240131, 106.5233875 -192.375" stroke="#9370DB" stroke-width="1.3" fill="none" stroke-dasharray="0 0"/></g><g class="divider"><path d="M-149.6640625 -192.37505 L-149.6640625 -192.37495 L149.6640625 -192.37495 L149.6640625 -192.37505" stroke="none" stroke-width="0" fill="#ECECFF" fill-rule="evenodd"/><path d="M-149.6640625 -192.37505 C-149.6640625 -192.37501605202237, -149.6640625 -192.37498210404476, -149.6640625 -192.37495 M-149.6640625 -192.37505 C-149.6640625 -192.3750161393556, -149.6640625 -192.3749822787112, -149.6640625 -192.37495 M-149.6640625 -192.37495 C-71.00957204021412 -192.37495, 7.644918419571752 -192.37495, 149.6640625 -192.37495 M-149.6640625 -192.37495 C-63.363171543492456 -192.37495, 22.93771941301509 -192.37495, 149.6640625 -192.37495 M149.6640625 -192.37495 C149.6640625 -192.37497172243184, 149.6640625 -192.3749934448637, 149.6640625 -192.37505 M149.6640625 -192.37495 C149.6640625 -192.3749890431166, 149.6640625 -192.37502808623324, 149.6640625 -192.37505 M149.6640625 -192.37505 C46.93534497830946 -192.37505, -55.79337254338108 -192.37505, -149.6640625 -192.37505 M149.6640625 -192.37505 C60.482726565520764 -192.37505, -28.698609368958472 -192.37505, -149.6640625 -192.37505" stroke="#9370DB" stroke-width="1.3" fill="none" stroke-dasharray="0 0"/></g></g><g class="node default" id="my-svg-entity-users-3" data-look="classic" transform="translate(591.08984375, 179)"><g class="outer-path" style=""><path d="M-68.796875 -42.75 L68.796875 -42.75 L68.796875 42.75 L-68.796875 42.75" stroke="none" stroke-width="0" fill="#ECECFF"/><path d="M-68.796875 -42.75 C-34.77138553314688 -42.75, -0.745896066293767 -42.75, 68.796875 -42.75 M-68.796875 -42.75 C-26.550097749236038 -42.75, 15.696679501527925 -42.75, 68.796875 -42.75 M68.796875 -42.75 C68.796875 -20.225501076512906, 68.796875 2.2989978469741885, 68.796875 42.75 M68.796875 -42.75 C68.796875 -24.716531094442654, 68.796875 -6.683062188885309, 68.796875 42.75 M68.796875 42.75 C30.381532170856005 42.75, -8.03381065828799 42.75, -68.796875 42.75 M68.796875 42.75 C31.263745684440508 42.75, -6.269383631118984 42.75, -68.796875 42.75 M-68.796875 42.75 C-68.796875 17.792746306882623, -68.796875 -7.164507386234753, -68.796875 -42.75 M-68.796875 42.75 C-68.796875 21.754831069203146, -68.796875 0.7596621384062914, -68.796875 -42.75" stroke="#9370DB" stroke-width="1.3" fill="none" stroke-dasharray="0 0"/></g><g style="" class="row-rect-odd"><path d="M-68.796875 0 L68.796875 0 L68.796875 42.75 L-68.796875 42.75" stroke="none" stroke-width="0" fill="hsl(240, 100%, 100%)"/><path d="M-68.796875 0 C-30.03007393143489 0, 8.736727137130217 0, 68.796875 0 M-68.796875 0 C-30.680279063344173 0, 7.436316873311654 0, 68.796875 0 M68.796875 0 C68.796875 15.365002637057906, 68.796875 30.73000527411581, 68.796875 42.75 M68.796875 0 C68.796875 10.89422538794151, 68.796875 21.78845077588302, 68.796875 42.75 M68.796875 42.75 C28.836962459753728 42.75, -11.122950080492544 42.75, -68.796875 42.75 M68.796875 42.75 C33.60457552209534 42.75, -1.5877239558093237 42.75, -68.796875 42.75 M-68.796875 42.75 C-68.796875 27.44718852327069, -68.796875 12.14437704654138, -68.796875 0 M-68.796875 42.75 C-68.796875 28.171696759452782, -68.796875 13.593393518905565, -68.796875 0" stroke="#9370DB" stroke-width="1.3" fill="none" stroke-dasharray="0 0"/></g><g class="label name" transform="translate(-18.3203125, -33.375)" style=""><foreignObject width="36.640625" height="24"><div xmlns="http://www.w3.org/1999/xhtml" style="display: table-cell; white-space: nowrap; line-height: 1.5; max-width: 133px; text-align: start;"><span class="nodeLabel"><p>users</p></span></div></foreignObject></g><g class="label attribute-type" transform="translate(-56.296875, 9.375)" style=""><foreignObject width="30.96875" height="24"><div xmlns="http://www.w3.org/1999/xhtml" style="display: table-cell; white-space: nowrap; line-height: 1.5; max-width: 128px; text-align: start;"><span class="nodeLabel"><p>uuid</p></span></div></foreignObject></g><g class="label attribute-name" transform="translate(-0.328125, 9.375)" style=""><foreignObject width="13.484375" height="24"><div xmlns="http://www.w3.org/1999/xhtml" style="display: table-cell; white-space: nowrap; line-height: 1.5; max-width: 112px; text-align: start;"><span class="nodeLabel"><p>id</p></span></div></foreignObject></g><g class="label attribute-keys" transform="translate(38.15625, 9.375)" style=""><foreignObject width="18.140625" height="24"><div xmlns="http://www.w3.org/1999/xhtml" style="display: table-cell; white-space: nowrap; line-height: 1.5; max-width: 121px; text-align: start;"><span class="nodeLabel"><p>PK</p></span></div></foreignObject></g><g class="label attribute-comment" transform="translate(81.296875, 9.375)" style=""><foreignObject width="0" height="0"><div xmlns="http://www.w3.org/1999/xhtml" style="display: table-cell; white-space: nowrap; line-height: 1.5; max-width: 100px; text-align: start;"><span class="nodeLabel"></span></div></foreignObject></g><g class="divider"><path d="M-68.796875 -0.00005 L-68.796875 0.00005 L68.796875 0.00005 L68.796875 -0.00005" stroke="none" stroke-width="0" fill="#ECECFF" fill-rule="evenodd"/><path d="M-68.796875 -0.00005 C-68.796875 -0.000021815810290737872, -68.796875 0.000006368379418524259, -68.796875 0.00005 M-68.796875 -0.00005 C-68.796875 -0.000018547749728321814, -68.796875 0.000012904500543356374, -68.796875 0.00005 M-68.796875 0.00005 C-23.106358073060363 0.00005, 22.584158853879273 0.00005, 68.796875 0.00005 M-68.796875 0.00005 C-16.07644352836151 0.00005, 36.64398794327698 0.00005, 68.796875 0.00005 M68.796875 0.00005 C68.796875 0.000011373658837955764, 68.796875 -0.000027252682324088475, 68.796875 -0.00005 M68.796875 0.00005 C68.796875 0.000025985151813293916, 68.796875 0.0000019703036265878305, 68.796875 -0.00005 M68.796875 -0.00005 C16.52161629312161 -0.00005, -35.75364241375678 -0.00005, -68.796875 -0.00005 M68.796875 -0.00005 C21.828331091185582 -0.00005, -25.140212817628836 -0.00005, -68.796875 -0.00005" stroke="#9370DB" stroke-width="1.3" fill="none" stroke-dasharray="0 0"/></g><g class="divider"><path d="M-12.828175 0 L-12.828075 0 L-12.828075 42.75 L-12.828175 42.75" stroke="none" stroke-width="0" fill="#ECECFF" fill-rule="evenodd"/><path d="M-12.828175 0 C-12.828142879663343 0, -12.828110759326684 0, -12.828075 0 M-12.828175 0 C-12.82813841039661 0, -12.828101820793218 0, -12.828075 0 M-12.828075 0 C-12.828075 15.825270035834077, -12.828075 31.650540071668154, -12.828075 42.75 M-12.828075 0 C-12.828075 13.317938066900227, -12.828075 26.635876133800455, -12.828075 42.75 M-12.828075 42.75 C-12.828095688661932 42.75, -12.828116377323864 42.75, -12.828175 42.75 M-12.828075 42.75 C-12.828101254772953 42.75, -12.828127509545906 42.75, -12.828175 42.75 M-12.828175 42.75 C-12.828175 29.684151384103792, -12.828175 16.618302768207588, -12.828175 0 M-12.828175 42.75 C-12.828175 31.96315107793168, -12.828175 21.17630215586336, -12.828175 0" stroke="#9370DB" stroke-width="1.3" fill="none" stroke-dasharray="0 0"/></g><g class="divider"><path d="M25.6562 0 L25.6563 0 L25.6563 42.75 L25.6562 42.75" stroke="none" stroke-width="0" fill="#ECECFF" fill-rule="evenodd"/><path d="M25.6562 0 C25.65623175150282 0, 25.65626350300564 0, 25.6563 0 M25.6562 0 C25.6562261054621 0, 25.6562522109242 0, 25.6563 0 M25.6563 0 C25.6563 16.140760628846188, 25.6563 32.281521257692376, 25.6563 42.75 M25.6563 0 C25.6563 16.4405357673187, 25.6563 32.8810715346374, 25.6563 42.75 M25.6563 42.75 C25.656261030498275 42.75, 25.656222060996548 42.75, 25.6562 42.75 M25.6563 42.75 C25.656265306405494 42.75, 25.656230612810983 42.75, 25.6562 42.75 M25.6562 42.75 C25.6562 28.043354210451767, 25.6562 13.33670842090353, 25.6562 0 M25.6562 42.75 C25.6562 27.276143410587927, 25.6562 11.802286821175851, 25.6562 0" stroke="#9370DB" stroke-width="1.3" fill="none" stroke-dasharray="0 0"/></g><g class="divider"><path d="M-68.796875 -0.00005 L-68.796875 0.00005 L68.796875 0.00005 L68.796875 -0.00005" stroke="none" stroke-width="0" fill="#ECECFF" fill-rule="evenodd"/><path d="M-68.796875 -0.00005 C-68.796875 -0.000021676089365842455, -68.796875 0.000006647821268315093, -68.796875 0.00005 M-68.796875 -0.00005 C-68.796875 -0.000025058720982786913, -68.796875 -1.174419655738246e-7, -68.796875 0.00005 M-68.796875 0.00005 C-28.581517120874807 0.00005, 11.633840758250386 0.00005, 68.796875 0.00005 M-68.796875 0.00005 C-17.23763569538091 0.00005, 34.32160360923818 0.00005, 68.796875 0.00005 M68.796875 0.00005 C68.796875 0.00001818689479276687, 68.796875 -0.000013626210414466261, 68.796875 -0.00005 M68.796875 0.00005 C68.796875 0.000024755762675972804, 68.796875 -4.884746480543939e-7, 68.796875 -0.00005 M68.796875 -0.00005 C29.867521543609783 -0.00005, -9.061831912780434 -0.00005, -68.796875 -0.00005 M68.796875 -0.00005 C20.89432758613134 -0.00005, -27.00821982773732 -0.00005, -68.796875 -0.00005" stroke="#9370DB" stroke-width="1.3" fill="none" stroke-dasharray="0 0"/></g></g></g></g></g><defs><filter id="my-svg-drop-shadow" height="130%" width="130%"><feDropShadow dx="4" dy="4" stdDeviation="0" flood-opacity="0.06" flood-color="#000000"/></filter></defs><defs><filter id="my-svg-drop-shadow-small" height="150%" width="150%"><feDropShadow dx="2" dy="2" stdDeviation="0" flood-opacity="0.06" flood-color="#000000"/></filter></defs></svg>